<svg width="270" height="226" viewBox="0 0 270 226" fill="none" xmlns="http://www.w3.org/2000/svg">
<path fill-rule="evenodd" clip-rule="evenodd" d="M87.4938 183.824L112.946 130.295C93.5061 126.168 73.9461 114.149 62.8835 99.5244L36.269 155.457C51.0593 167.998 68.8156 177.854 87.4938 183.824Z" fill="#1A007F"/>
<path fill-rule="evenodd" clip-rule="evenodd" d="M193.711 97.9219C180.925 113.588 163.169 125.207 144.17 129.734L169.542 183.103C188.06 176.852 205.375 166.756 220.326 153.814L193.711 97.9219Z" fill="#4E000A"/>
<path fill-rule="evenodd" clip-rule="evenodd" d="M36.269 155.457L22.9618 183.423C16.188 197.647 21.2784 215.156 35.2269 222.568C50.0172 230.421 68.2144 224.291 75.349 209.346L87.4939 183.824C68.7395 177.782 51.3399 168.146 36.269 155.457Z" fill="#1A007F"/>
<path fill-rule="evenodd" clip-rule="evenodd" d="M246.539 36.8609C244.651 36.4843 242.727 36.292 240.803 36.292C226.923 36.292 214.866 46.1764 212.149 59.7788C209.343 73.802 202.77 86.8636 193.711 97.9619L220.286 153.894C244.816 132.619 262.933 103.651 269.426 71.2378C272.593 55.3715 262.332 39.9861 246.539 36.8609Z" fill="#FF9396"/>
<path fill-rule="evenodd" clip-rule="evenodd" d="M144.17 129.734C138.478 131.097 132.666 131.818 126.854 131.818C122.325 131.818 117.636 131.297 112.946 130.295C93.5062 126.169 73.9462 114.149 62.8835 99.5245C60.1179 95.8785 57.8732 92.0722 56.31 88.1858C50.2577 73.2411 33.2228 66.0292 18.2722 72.0391C3.32164 78.0891 -3.89311 95.1172 2.11919 110.062C8.97321 127.05 21.078 142.636 36.269 155.457C51.3278 168.146 68.7114 177.778 87.4538 183.824C100.32 187.951 113.667 190.234 126.814 190.234C141.404 190.234 155.794 187.71 169.502 183.103L144.17 129.734Z" fill="#002DC8"/>
<path fill-rule="evenodd" clip-rule="evenodd" d="M234.314 183.303L220.286 153.814L193.711 97.9218L193.671 97.9619C193.671 97.9619 193.671 97.9218 193.711 97.9218L155.072 16.6676C150.238 6.51077 139.949 0.00801324 128.698 0C117.435 0 107.174 6.49074 102.324 16.6676L62.9236 99.5245C73.9862 114.149 93.5462 126.168 112.986 130.295L125.732 103.531C126.935 101.007 130.542 101.007 131.744 103.531L144.21 129.734L169.582 183.103L182.047 209.306C186.877 219.483 197.19 225.993 208.461 225.973C211.067 225.973 213.672 225.613 216.237 224.892C233.833 220.044 242.17 199.81 234.314 183.303Z" fill="#FF536A"/>
<path fill-rule="evenodd" clip-rule="evenodd" d="M87.4938 183.824L112.946 130.295C93.5061 126.169 73.9461 114.149 62.8835 99.5245L36.269 155.457C51.0593 167.998 68.8156 177.854 87.4938 183.824Z" fill="#1A007F"/>
<path fill-rule="evenodd" clip-rule="evenodd" d="M193.711 97.9219C180.925 113.588 163.169 125.207 144.17 129.734L169.542 183.103C188.06 176.852 205.375 166.756 220.326 153.814L193.711 97.9219Z" fill="#4E000A"/>
<path fill-rule="evenodd" clip-rule="evenodd" d="M36.269 155.457L22.9618 183.423C16.188 197.647 21.2784 215.156 35.2269 222.568C50.0172 230.421 68.2144 224.291 75.349 209.346L87.4938 183.824C68.7395 177.782 51.3399 168.146 36.269 155.457Z" fill="#1A007F"/>
<path fill-rule="evenodd" clip-rule="evenodd" d="M246.539 36.8609C244.651 36.4843 242.727 36.292 240.803 36.292C226.923 36.292 214.866 46.1763 212.149 59.7788C209.343 73.802 202.77 86.8636 193.711 97.9619L220.285 153.894C244.816 132.619 262.933 103.651 269.426 71.2377C272.593 55.3715 262.332 39.9861 246.539 36.8609Z" fill="#FF9396"/>
<path fill-rule="evenodd" clip-rule="evenodd" d="M144.17 129.734C138.478 131.097 132.666 131.818 126.854 131.818C122.325 131.818 117.635 131.297 112.946 130.295C93.5061 126.169 73.9461 114.149 62.8835 99.5245C60.1178 95.8785 57.8732 92.0722 56.31 88.1858C50.2576 73.2411 33.2228 66.0292 18.2722 72.0391C3.32162 78.0891 -3.89314 95.1172 2.11916 110.062C8.97318 127.05 21.0779 142.636 36.269 155.457C51.3278 168.146 68.7114 177.778 87.4537 183.824C100.32 187.951 113.667 190.234 126.814 190.234C141.404 190.234 155.794 187.71 169.502 183.103L144.17 129.734Z" fill="#002DC8"/>
<path fill-rule="evenodd" clip-rule="evenodd" d="M234.314 183.303L220.286 153.814L193.711 97.9218L193.671 97.9619C193.671 97.9619 193.671 97.9218 193.711 97.9218L155.072 16.6675C150.238 6.51076 139.949 0.00801324 128.698 0C117.435 0 107.174 6.49072 102.324 16.6675L62.9236 99.5244C73.9862 114.149 93.5462 126.168 112.986 130.295L125.732 103.531C126.935 101.007 130.542 101.007 131.744 103.531L144.21 129.734L169.582 183.103L182.047 209.306C186.877 219.483 197.19 225.993 208.461 225.973C211.067 225.973 213.672 225.613 216.237 224.892C233.833 220.044 242.17 199.81 234.314 183.303Z" fill="#FF536A"/>
</svg>
