<svg width="21" height="31" viewBox="0 0 21 31" fill="none" xmlns="http://www.w3.org/2000/svg">
<g clip-path="url(#clip0_1264_3665)">
<path d="M10.3359 15.5008C10.3359 12.6764 12.6256 10.3867 15.45 10.3867C18.2744 10.3867 20.5641 12.6764 20.5641 15.5008C20.5641 18.3252 18.2744 20.6149 15.45 20.6149C12.6256 20.6149 10.3359 18.3252 10.3359 15.5008Z" fill="#1ABCFE"/>
<path d="M0.105469 25.7273C0.105469 22.903 2.39511 20.6133 5.21953 20.6133H10.3336V25.7273C10.3336 28.5518 8.04398 30.8414 5.21953 30.8414C2.39511 30.8414 0.105469 28.5518 0.105469 25.7273Z" fill="#0ACF83"/>
<path d="M10.3359 0.158203V10.3863H15.45C18.2744 10.3863 20.5641 8.09668 20.5641 5.27227C20.5641 2.44785 18.2744 0.158203 15.45 0.158203H10.3359Z" fill="#FF7262"/>
<path d="M0.105469 5.27227C0.105469 8.09669 2.39511 10.3863 5.21953 10.3863H10.3336V0.158203H5.21953C2.39511 0.158203 0.105469 2.44785 0.105469 5.27227Z" fill="#F24E1E"/>
<path d="M0.105469 15.5008C0.105469 18.3252 2.39511 20.6149 5.21953 20.6149H10.3336V10.3867H5.21953C2.39511 10.3867 0.105469 12.6764 0.105469 15.5008Z" fill="#A259FF"/>
</g>
<defs>
<clipPath id="clip0_1264_3665">
<rect width="20.6667" height="31" fill="white"/>
</clipPath>
</defs>
</svg>
