<svg width="122" height="37" viewBox="0 0 122 37" fill="none" xmlns="http://www.w3.org/2000/svg">
<g clip-path="url(#clip0_4090_4)">
<path d="M104.953 36.286C100.733 37.92 99.017 36.372 99.017 35.395C100.512 35.269 104.084 35.064 104.953 36.286ZM110.309 34.95C109.261 35.7202 107.974 36.093 106.676 36.0019C105.379 35.9109 104.156 35.3619 103.226 34.453C104.666 34.053 108.598 33.579 110.309 34.95ZM103.17 31.774C103.33 33.807 101.248 34.95 99 35.115C99.41 33.07 101.509 32.157 103.17 31.774ZM107.202 29.9C107.44 30.769 107.113 33.128 103.879 34.064C104.018 32.471 104.865 30.397 107.202 29.9ZM113.615 32.265C112.786 33.0923 111.693 33.6025 110.526 33.7069C109.359 33.8112 108.193 33.503 107.23 32.836C108.526 32.168 111.638 31.266 113.615 32.265ZM110.198 27.559C110.641 28.415 110.735 30.854 107.872 32.322C107.706 30.752 108.337 28.067 110.198 27.559ZM117.281 28.507C117.011 29.0373 116.637 29.5073 116.18 29.8884C115.723 30.2695 115.194 30.5538 114.624 30.724C114.059 30.8898 113.466 30.9363 112.883 30.8605C112.299 30.7848 111.738 30.5884 111.234 30.284C113.039 28.587 115.919 27.936 117.281 28.507ZM113.001 23.96C114.285 26.2 112.928 28.758 111.516 29.809C110.888 27.727 111.465 25.458 113.001 23.96ZM119.663 23.863C119.818 27.342 116.185 27.153 114.479 27.176C115.016 26.445 118.001 23.795 119.663 23.863ZM115.183 20.613C115.858 21.356 116.871 24.212 114.628 26.542C113.925 24.857 113.771 22.27 115.183 20.613ZM121.568 19.071C121.684 21.881 119.319 23.303 117.038 23.281C117.724 21.927 119.558 19.317 121.568 19.071ZM116.783 17.135C118.295 18.025 118.123 20.899 117.231 22.395C116.229 21.002 115.481 19.271 116.783 17.135ZM121.667 14.502C122.415 17.061 120.217 18.792 118.898 18.94C119.236 17.718 119.678 15.553 121.667 14.502ZM117.06 13.651C118.727 14.486 119.517 16.483 118.893 18.283C117.73 17.346 116.329 15.364 117.06 13.651ZM121.745 10.555C122.775 13.668 120.41 14.685 119.53 14.935C119.635 13.611 120.477 10.972 121.745 10.555ZM117.126 9.738C117.802 9.933 119.729 11.515 119.38 14.348C118.112 13.634 116.572 12.274 117.126 9.738ZM121.047 5.838C122.199 9.664 120.277 11.235 119.646 11.548C119.546 10.338 119.424 7.511 121.047 5.838ZM116.783 5.934C117.99 6.271 119.513 8.487 119.441 10.618C118.245 10.07 116.456 7.791 116.783 5.934ZM117.143 0C119.945 2.896 120.338 5.18 119.519 7.996C118.25 6.854 117.237 3.427 117.143 0ZM17.047 36.286C21.267 37.92 22.983 36.372 22.983 35.395C21.488 35.269 17.916 35.064 17.047 36.286ZM11.69 34.95C12.738 35.7202 14.0254 36.093 15.3228 36.0019C16.6201 35.9109 17.8429 35.3619 18.773 34.453C17.333 34.053 13.401 33.579 11.69 34.95ZM18.829 31.774C18.669 33.807 20.751 34.95 22.999 35.115C22.589 33.07 20.49 32.157 18.829 31.774ZM14.798 29.9C14.56 30.769 14.887 33.128 18.121 34.064C17.982 32.471 17.135 30.397 14.798 29.9ZM8.38501 32.265C9.21426 33.0923 10.3074 33.6025 11.4741 33.7069C12.6408 33.8112 13.8071 33.503 14.77 32.836C13.474 32.168 10.362 31.266 8.38501 32.265ZM11.802 27.559C11.359 28.415 11.265 30.854 14.128 32.322C14.294 30.752 13.663 28.067 11.802 27.559ZM4.71901 28.507C4.98853 29.0373 5.36304 29.5073 5.81979 29.8884C6.27655 30.2695 6.80601 30.5538 7.37601 30.724C7.94069 30.8898 8.53367 30.9363 9.11728 30.8605C9.70089 30.7848 10.2624 30.5884 10.766 30.284C8.96101 28.587 6.08101 27.936 4.71901 28.507ZM8.99901 23.96C7.71501 26.2 9.07201 28.758 10.484 29.809C11.112 27.727 10.536 25.458 9.00001 23.96H8.99901ZM2.33701 23.863C2.18201 27.342 5.81501 27.153 7.52101 27.176C6.98401 26.445 3.99901 23.795 2.33701 23.863ZM6.81701 20.613C6.14201 21.356 5.12901 24.212 7.37201 26.542C8.07501 24.857 8.22901 22.27 6.81701 20.613ZM0.433011 19.071C0.317011 21.881 2.68201 23.303 4.96301 23.281C4.27701 21.927 2.44301 19.317 0.433011 19.071ZM5.21801 17.135C3.70601 18.025 3.87801 20.899 4.77001 22.395C5.77201 21.002 6.52001 19.271 5.21801 17.135ZM0.333011 14.502C-0.414989 17.061 1.78301 18.792 3.10201 18.94C2.76401 17.718 2.32101 15.553 0.332011 14.502H0.333011ZM4.94001 13.651C3.27301 14.486 2.48301 16.483 3.10701 18.283C4.27001 17.346 5.67101 15.364 4.94001 13.651ZM0.255011 10.555C-0.774989 13.668 1.59001 14.685 2.47001 14.935C2.36501 13.611 1.52301 10.972 0.255011 10.555ZM4.87401 9.738C4.19801 9.933 2.27101 11.515 2.62001 14.348C3.88801 13.634 5.42801 12.274 4.87401 9.738ZM0.953011 5.838C-0.198989 9.664 1.72301 11.235 2.35401 11.548C2.45401 10.338 2.57601 7.511 0.953011 5.838ZM5.21701 5.934C4.01001 6.271 2.48701 8.487 2.55901 10.618C3.75501 10.07 5.54401 7.791 5.21701 5.934ZM4.85701 0C2.05501 2.896 1.66201 5.18 2.48101 7.996C3.75001 6.854 4.76301 3.427 4.85701 0Z" fill="#4B587C"/>
<path d="M16.5135 8.07892V6.63282H22.7404V8.07892H20.5065V14H18.751V8.07892H16.5135ZM25.388 14.1043C24.8076 14.1043 24.3088 13.9856 23.8915 13.7482C23.4766 13.5084 23.1565 13.175 22.931 12.7482C22.708 12.3189 22.5965 11.8213 22.5965 11.2553C22.5965 10.6869 22.708 10.1893 22.931 9.76243C23.1565 9.33316 23.4766 8.99982 23.8915 8.7624C24.3088 8.52258 24.8076 8.40267 25.388 8.40267C25.9683 8.40267 26.466 8.52258 26.8808 8.7624C27.2981 8.99982 27.6183 9.33316 27.8413 9.76243C28.0667 10.1893 28.1794 10.6869 28.1794 11.2553C28.1794 11.8213 28.0667 12.3189 27.8413 12.7482C27.6183 13.175 27.2981 13.5084 26.8808 13.7482C26.466 13.9856 25.9683 14.1043 25.388 14.1043ZM25.3988 12.7769C25.6098 12.7769 25.7885 12.7122 25.9348 12.5827C26.081 12.4532 26.1926 12.2733 26.2693 12.0431C26.3484 11.8129 26.388 11.5467 26.388 11.2445C26.388 10.9375 26.3484 10.6689 26.2693 10.4387C26.1926 10.2085 26.081 10.0286 25.9348 9.89913C25.7885 9.76963 25.6098 9.70488 25.3988 9.70488C25.1805 9.70488 24.9959 9.76963 24.8448 9.89913C24.6961 10.0286 24.5822 10.2085 24.503 10.4387C24.4263 10.6689 24.3879 10.9375 24.3879 11.2445C24.3879 11.5467 24.4263 11.8129 24.503 12.0431C24.5822 12.2733 24.6961 12.4532 24.8448 12.5827C24.9959 12.7122 25.1805 12.7769 25.3988 12.7769ZM29.0806 16.072V8.47462H30.8216V9.42069H30.8756C30.9475 9.25282 31.0495 9.09095 31.1814 8.93506C31.3157 8.77918 31.4859 8.65208 31.6922 8.55376C31.9008 8.45303 32.1502 8.40267 32.4404 8.40267C32.8241 8.40267 33.1826 8.50339 33.516 8.70484C33.8517 8.90629 34.1227 9.21685 34.329 9.63653C34.5352 10.0562 34.6383 10.591 34.6383 11.2409C34.6383 11.8668 34.5388 12.3908 34.3397 12.8129C34.1431 13.235 33.8769 13.5515 33.5412 13.7626C33.2078 13.9736 32.8373 14.0791 32.4296 14.0791C32.1514 14.0791 31.9104 14.0336 31.7066 13.9424C31.5027 13.8513 31.3312 13.7314 31.1921 13.5827C31.0554 13.434 30.9499 13.2746 30.8756 13.1043H30.8396V16.072H29.0806ZM30.8036 11.2373C30.8036 11.5347 30.8432 11.7937 30.9224 12.0143C31.0039 12.2349 31.1202 12.4064 31.2713 12.5287C31.4248 12.6486 31.6082 12.7086 31.8217 12.7086C32.0375 12.7086 32.221 12.6486 32.372 12.5287C32.5231 12.4064 32.637 12.2349 32.7138 12.0143C32.7929 11.7937 32.8325 11.5347 32.8325 11.2373C32.8325 10.9399 32.7929 10.6821 32.7138 10.4639C32.637 10.2457 32.5231 10.0766 32.372 9.95669C32.2234 9.83678 32.0399 9.77682 31.8217 9.77682C31.6058 9.77682 31.4224 9.83558 31.2713 9.95309C31.1202 10.0706 31.0039 10.2385 30.9224 10.4567C30.8432 10.6749 30.8036 10.9351 30.8036 11.2373ZM52.9708 16.072V8.47462H54.7119V9.42069H54.7659C54.8378 9.25282 54.9397 9.09095 55.0716 8.93506C55.2059 8.77918 55.3762 8.65208 55.5824 8.55376C55.7911 8.45303 56.0405 8.40267 56.3307 8.40267C56.7144 8.40267 57.0729 8.50339 57.4062 8.70484C57.742 8.90629 58.013 9.21685 58.2192 9.63653C58.4255 10.0562 58.5286 10.591 58.5286 11.2409C58.5286 11.8668 58.4291 12.3908 58.23 12.8129C58.0334 13.235 57.7672 13.5515 57.4314 13.7626C57.0981 13.9736 56.7276 14.0791 56.3199 14.0791C56.0417 14.0791 55.8007 14.0336 55.5968 13.9424C55.393 13.8513 55.2215 13.7314 55.0824 13.5827C54.9457 13.434 54.8402 13.2746 54.7659 13.1043H54.7299V16.072H52.9708ZM54.6939 11.2373C54.6939 11.5347 54.7335 11.7937 54.8126 12.0143C54.8942 12.2349 55.0105 12.4064 55.1616 12.5287C55.315 12.6486 55.4985 12.7086 55.7119 12.7086C55.9278 12.7086 56.1112 12.6486 56.2623 12.5287C56.4134 12.4064 56.5273 12.2349 56.6041 12.0143C56.6832 11.7937 56.7228 11.5347 56.7228 11.2373C56.7228 10.9399 56.6832 10.6821 56.6041 10.4639C56.5273 10.2457 56.4134 10.0766 56.2623 9.95669C56.1136 9.83678 55.9302 9.77682 55.7119 9.77682C55.4961 9.77682 55.3126 9.83558 55.1616 9.95309C55.0105 10.0706 54.8942 10.2385 54.8126 10.4567C54.7335 10.6749 54.6939 10.9351 54.6939 11.2373ZM59.4504 14V8.47462H61.1591V9.48185H61.2166C61.3174 9.11733 61.4816 8.84633 61.7095 8.66887C61.9373 8.48901 62.2023 8.39907 62.5045 8.39907C62.586 8.39907 62.6699 8.40507 62.7563 8.41706C62.8426 8.42665 62.9229 8.44224 62.9973 8.46382V9.99266C62.9133 9.96388 62.803 9.9411 62.6663 9.92431C62.532 9.90752 62.4121 9.89913 62.3066 9.89913C62.098 9.89913 61.9097 9.94589 61.7418 10.0394C61.5764 10.1306 61.4457 10.2589 61.3497 10.4243C61.2562 10.5874 61.2094 10.7793 61.2094 10.9999V14H59.4504ZM66.0064 14.1043C65.426 14.1043 64.9272 13.9856 64.5099 13.7482C64.095 13.5084 63.7749 13.175 63.5495 12.7482C63.3264 12.3189 63.2149 11.8213 63.2149 11.2553C63.2149 10.6869 63.3264 10.1893 63.5495 9.76243C63.7749 9.33316 64.095 8.99982 64.5099 8.7624C64.9272 8.52258 65.426 8.40267 66.0064 8.40267C66.5867 8.40267 67.0844 8.52258 67.4992 8.7624C67.9165 8.99982 68.2367 9.33316 68.4597 9.76243C68.6851 10.1893 68.7978 10.6869 68.7978 11.2553C68.7978 11.8213 68.6851 12.3189 68.4597 12.7482C68.2367 13.175 67.9165 13.5084 67.4992 13.7482C67.0844 13.9856 66.5867 14.1043 66.0064 14.1043ZM66.0172 12.7769C66.2282 12.7769 66.4069 12.7122 66.5532 12.5827C66.6994 12.4532 66.811 12.2733 66.8877 12.0431C66.9668 11.8129 67.0064 11.5467 67.0064 11.2445C67.0064 10.9375 66.9668 10.6689 66.8877 10.4387C66.811 10.2085 66.6994 10.0286 66.5532 9.89913C66.4069 9.76963 66.2282 9.70488 66.0172 9.70488C65.7989 9.70488 65.6143 9.76963 65.4632 9.89913C65.3145 10.0286 65.2006 10.2085 65.1215 10.4387C65.0447 10.6689 65.0063 10.9375 65.0063 11.2445C65.0063 11.5467 65.0447 11.8129 65.1215 12.0431C65.2006 12.2733 65.3145 12.4532 65.4632 12.5827C65.6143 12.7122 65.7989 12.7769 66.0172 12.7769ZM71.717 14.0791C71.3093 14.0791 70.9388 13.9736 70.6055 13.7626C70.2721 13.5515 70.0059 13.235 69.8069 12.8129C69.6078 12.3908 69.5083 11.8668 69.5083 11.2409C69.5083 10.591 69.6114 10.0562 69.8177 9.63653C70.0239 9.21685 70.2937 8.90629 70.6271 8.70484C70.9628 8.50339 71.3237 8.40267 71.7098 8.40267C72 8.40267 72.2482 8.45303 72.4545 8.55376C72.6607 8.65208 72.831 8.77918 72.9653 8.93506C73.0996 9.09095 73.2015 9.25282 73.271 9.42069H73.307V6.63282H75.0661V14H73.325V13.1043H73.271C73.1967 13.2746 73.0912 13.434 72.9545 13.5827C72.8178 13.7314 72.6463 13.8513 72.4401 13.9424C72.2362 14.0336 71.9952 14.0791 71.717 14.0791ZM72.3286 12.7086C72.542 12.7086 72.7243 12.6486 72.8753 12.5287C73.0264 12.4064 73.1427 12.2349 73.2243 12.0143C73.3058 11.7937 73.3466 11.5347 73.3466 11.2373C73.3466 10.9351 73.3058 10.6749 73.2243 10.4567C73.1451 10.2385 73.0288 10.0706 72.8753 9.95309C72.7243 9.83558 72.542 9.77682 72.3286 9.77682C72.1103 9.77682 71.9257 9.83678 71.7746 9.95669C71.6235 10.0766 71.5084 10.2457 71.4292 10.4639C71.3525 10.6821 71.3141 10.9399 71.3141 11.2373C71.3141 11.5347 71.3537 11.7937 71.4328 12.0143C71.512 12.2349 71.6259 12.4064 71.7746 12.5287C71.9257 12.6486 72.1103 12.7086 72.3286 12.7086ZM79.7434 11.615V8.47462H81.4989V14H79.8225V12.9712H79.765C79.6427 13.3093 79.434 13.5779 79.1391 13.777C78.8465 13.9736 78.4928 14.0719 78.0779 14.0719C77.7014 14.0719 77.3704 13.9856 77.085 13.8129C76.7996 13.6403 76.5778 13.3993 76.4195 13.0899C76.2613 12.7781 76.1809 12.4136 76.1785 11.9963V8.47462H77.9376V11.651C77.94 11.9508 78.0191 12.187 78.175 12.3597C78.3309 12.5323 78.5431 12.6187 78.8117 12.6187C78.9868 12.6187 79.1439 12.5803 79.283 12.5035C79.4244 12.4244 79.536 12.3105 79.6175 12.1618C79.7014 12.0107 79.7434 11.8285 79.7434 11.615ZM85.1977 14.1043C84.615 14.1043 84.115 13.9844 83.6977 13.7446C83.2828 13.5048 82.9638 13.1714 82.7408 12.7446C82.5178 12.3153 82.4063 11.8189 82.4063 11.2553C82.4063 10.6893 82.5178 10.1929 82.7408 9.76603C82.9662 9.33676 83.2864 9.00221 83.7013 8.7624C84.1186 8.52258 84.6162 8.40267 85.1941 8.40267C85.7049 8.40267 86.1498 8.495 86.5287 8.67966C86.91 8.86432 87.2074 9.12572 87.4208 9.46386C87.6367 9.7996 87.7506 10.1941 87.7626 10.6474H86.1186C86.0851 10.3644 85.9891 10.1425 85.8309 9.98187C85.675 9.82119 85.4711 9.74085 85.2193 9.74085C85.0155 9.74085 84.8368 9.79841 84.6833 9.91352C84.5298 10.0262 84.4099 10.1941 84.3236 10.4171C84.2397 10.6378 84.1977 10.9112 84.1977 11.2373C84.1977 11.5635 84.2397 11.8392 84.3236 12.0647C84.4099 12.2877 84.5298 12.4568 84.6833 12.5719C84.8368 12.6846 85.0155 12.741 85.2193 12.741C85.3824 12.741 85.5263 12.7062 85.651 12.6366C85.7781 12.5671 85.8824 12.4652 85.964 12.3309C86.0455 12.1942 86.097 12.0287 86.1186 11.8345H87.7626C87.7458 12.2901 87.6319 12.6882 87.4208 13.0287C87.2122 13.3693 86.9184 13.6343 86.5395 13.8237C86.163 14.0108 85.7157 14.1043 85.1977 14.1043ZM91.7816 8.47462V9.76963H88.2959V8.47462H91.7816ZM89.0261 7.15083H90.7852V12.2625C90.7852 12.3704 90.802 12.458 90.8355 12.5251C90.8715 12.5899 90.9231 12.6366 90.9902 12.6654C91.0574 12.6918 91.1377 12.705 91.2312 12.705C91.2984 12.705 91.3691 12.699 91.4435 12.687C91.5202 12.6726 91.5778 12.6606 91.6161 12.651L91.8823 13.9209C91.7984 13.9448 91.6797 13.9748 91.5262 14.0108C91.3751 14.0468 91.1941 14.0695 90.983 14.0791C90.5705 14.0983 90.2168 14.0504 89.9218 13.9352C89.6293 13.8177 89.405 13.6355 89.2492 13.3885C89.0957 13.1415 89.0213 12.8309 89.0261 12.4568V7.15083ZM97.4347 14.1043C96.8543 14.1043 96.3555 13.9856 95.9382 13.7482C95.5234 13.5084 95.2032 13.175 94.9778 12.7482C94.7547 12.3189 94.6432 11.8213 94.6432 11.2553C94.6432 10.6869 94.7547 10.1893 94.9778 9.76243C95.2032 9.33316 95.5234 8.99982 95.9382 8.7624C96.3555 8.52258 96.8543 8.40267 97.4347 8.40267C98.0151 8.40267 98.5127 8.52258 98.9276 8.7624C99.3448 8.99982 99.665 9.33316 99.888 9.76243C100.113 10.1893 100.226 10.6869 100.226 11.2553C100.226 11.8213 100.113 12.3189 99.888 12.7482C99.665 13.175 99.3448 13.5084 98.9276 13.7482C98.5127 13.9856 98.0151 14.1043 97.4347 14.1043ZM97.4455 12.7769C97.6565 12.7769 97.8352 12.7122 97.9815 12.5827C98.1278 12.4532 98.2393 12.2733 98.316 12.0431C98.3952 11.8129 98.4347 11.5467 98.4347 11.2445C98.4347 10.9375 98.3952 10.6689 98.316 10.4387C98.2393 10.2085 98.1278 10.0286 97.9815 9.89913C97.8352 9.76963 97.6565 9.70488 97.4455 9.70488C97.2273 9.70488 97.0426 9.76963 96.8915 9.89913C96.7428 10.0286 96.6289 10.2085 96.5498 10.4387C96.473 10.6689 96.4347 10.9375 96.4347 11.2445C96.4347 11.5467 96.473 11.8129 96.5498 12.0431C96.6289 12.2733 96.7428 12.4532 96.8915 12.5827C97.0426 12.7122 97.2273 12.7769 97.4455 12.7769ZM104.268 8.47462V9.76963H100.714V8.47462H104.268ZM101.455 14V8.19403C101.455 7.76716 101.535 7.41343 101.696 7.13284C101.856 6.84986 102.079 6.63882 102.365 6.49972C102.65 6.35823 102.98 6.28748 103.354 6.28748C103.599 6.28748 103.829 6.30667 104.045 6.34504C104.263 6.38101 104.425 6.41339 104.53 6.44217L104.25 7.72998C104.185 7.7084 104.106 7.69041 104.012 7.67603C103.921 7.66164 103.835 7.65444 103.753 7.65444C103.547 7.65444 103.406 7.70001 103.329 7.79114C103.252 7.88227 103.214 8.00697 103.214 8.16525V14H101.455ZM46.1279 23.4746V24.7696H42.6422V23.4746H46.1279ZM43.3724 22.1508H45.1315V27.2625C45.1315 27.3704 45.1483 27.458 45.1819 27.5251C45.2178 27.5899 45.2694 27.6366 45.3366 27.6654C45.4037 27.6918 45.484 27.705 45.5776 27.705C45.6447 27.705 45.7155 27.699 45.7898 27.687C45.8665 27.6726 45.9241 27.6606 45.9625 27.651L46.2287 28.9209C46.1447 28.9448 46.026 28.9748 45.8725 29.0108C45.7215 29.0468 45.5404 29.0695 45.3294 29.0791C44.9169 29.0983 44.5631 29.0504 44.2682 28.9352C43.9756 28.8177 43.7514 28.6355 43.5955 28.3885C43.442 28.1415 43.3677 27.8309 43.3724 27.4568V22.1508ZM48.9032 25.8488V29H47.1442V21.6328H48.8457V24.489H48.9068C49.0315 24.1485 49.2354 23.8823 49.5184 23.6905C49.8037 23.4986 50.1527 23.4027 50.5652 23.4027C50.9537 23.4027 51.2918 23.489 51.5796 23.6617C51.8674 23.8319 52.0904 24.073 52.2487 24.3847C52.4094 24.6965 52.4885 25.061 52.4861 25.4783V29H50.727V25.8236C50.7294 25.5167 50.6527 25.2768 50.4968 25.1042C50.3409 24.9315 50.1215 24.8452 49.8385 24.8452C49.6539 24.8452 49.4908 24.8859 49.3493 24.9675C49.2102 25.0466 49.1011 25.1605 49.0219 25.3092C48.9452 25.4579 48.9056 25.6378 48.9032 25.8488ZM56.167 29.1043C55.589 29.1043 55.0902 28.9904 54.6705 28.7626C54.2532 28.5324 53.9319 28.205 53.7065 27.7805C53.4834 27.3537 53.3719 26.8464 53.3719 26.2589C53.3719 25.6881 53.4846 25.1893 53.7101 24.7624C53.9355 24.3332 54.2532 23.9998 54.6633 23.7624C55.0734 23.5226 55.5567 23.4027 56.113 23.4027C56.5063 23.4027 56.8661 23.4638 57.1922 23.5861C57.5184 23.7084 57.8001 23.8895 58.0376 24.1293C58.275 24.3691 58.4596 24.6653 58.5915 25.0178C58.7234 25.368 58.7894 25.7697 58.7894 26.2229V26.6618H53.987V25.6402H57.1526C57.1502 25.4531 57.1059 25.2864 57.0195 25.1401C56.9332 24.9939 56.8145 24.8799 56.6634 24.7984C56.5147 24.7145 56.3433 24.6725 56.149 24.6725C55.9523 24.6725 55.7761 24.7169 55.6202 24.8056C55.4643 24.8919 55.3408 25.0106 55.2497 25.1617C55.1586 25.3104 55.1106 25.4795 55.1058 25.6689V26.7085C55.1058 26.934 55.1502 27.1318 55.2389 27.3021C55.3276 27.47 55.4535 27.6007 55.6166 27.6942C55.7797 27.7877 55.9739 27.8345 56.1994 27.8345C56.3552 27.8345 56.4967 27.8129 56.6238 27.7697C56.7509 27.7266 56.8601 27.663 56.9512 27.5791C57.0423 27.4951 57.1107 27.392 57.1562 27.2697L58.7714 27.3165C58.7042 27.6786 58.5568 27.994 58.3289 28.2626C58.1035 28.5288 57.8073 28.7362 57.4404 28.8849C57.0735 29.0312 56.649 29.1043 56.167 29.1043ZM64.5873 29H61.8641V21.6328H64.5837C65.3343 21.6328 65.9806 21.7803 66.5226 22.0753C67.067 22.3679 67.4866 22.7899 67.7816 23.3415C68.0766 23.8907 68.2241 24.5478 68.2241 25.3128C68.2241 26.0802 68.0766 26.7397 67.7816 27.2913C67.489 27.8429 67.0706 28.2662 66.5262 28.5611C65.9818 28.8537 65.3355 29 64.5873 29ZM63.6448 27.482H64.5189C64.9314 27.482 65.2803 27.4124 65.5657 27.2733C65.8535 27.1318 66.0705 26.9028 66.2168 26.5862C66.3655 26.2673 66.4398 25.8428 66.4398 25.3128C66.4398 24.7828 66.3655 24.3607 66.2168 24.0466C66.0681 23.73 65.8487 23.5022 65.5585 23.3631C65.2707 23.2216 64.9158 23.1509 64.4937 23.1509H63.6448V27.482ZM70.8213 29.0935C70.4688 29.0935 70.1558 29.0348 69.8824 28.9173C69.6114 28.7974 69.3968 28.6175 69.2385 28.3777C69.0826 28.1355 69.0047 27.8321 69.0047 27.4676C69.0047 27.1606 69.0586 26.9016 69.1666 26.6906C69.2745 26.4795 69.4232 26.3081 69.6126 26.1762C69.8021 26.0443 70.0203 25.9447 70.2673 25.8776C70.5143 25.808 70.7781 25.7613 71.0587 25.7373C71.3729 25.7085 71.6259 25.6785 71.8177 25.6474C72.0096 25.6138 72.1487 25.567 72.235 25.5071C72.3238 25.4447 72.3681 25.3572 72.3681 25.2445V25.2265C72.3681 25.0418 72.3046 24.8991 72.1775 24.7984C72.0504 24.6977 71.8789 24.6473 71.6631 24.6473C71.4304 24.6473 71.2434 24.6977 71.1019 24.7984C70.9604 24.8991 70.8705 25.0382 70.8321 25.2157L69.2097 25.1581C69.2577 24.8224 69.3812 24.5226 69.5802 24.2588C69.7817 23.9926 70.0575 23.784 70.4076 23.6329C70.7601 23.4794 71.1834 23.4027 71.6774 23.4027C72.03 23.4027 72.3549 23.4446 72.6523 23.5286C72.9497 23.6101 73.2087 23.73 73.4293 23.8883C73.6499 24.0442 73.8202 24.236 73.9401 24.4639C74.0624 24.6917 74.1236 24.9519 74.1236 25.2445V29H72.4688V28.2302H72.4257C72.3274 28.4172 72.2014 28.5755 72.048 28.705C71.8969 28.8345 71.7182 28.9317 71.512 28.9964C71.3081 29.0612 71.0779 29.0935 70.8213 29.0935ZM71.3645 27.9424C71.5539 27.9424 71.7242 27.904 71.8753 27.8273C72.0288 27.7506 72.1511 27.645 72.2422 27.5107C72.3333 27.374 72.3789 27.2158 72.3789 27.0359V26.5107C72.3286 26.5371 72.2674 26.5611 72.1955 26.5826C72.1259 26.6042 72.0492 26.6246 71.9652 26.6438C71.8813 26.663 71.795 26.6798 71.7062 26.6942C71.6175 26.7085 71.5324 26.7217 71.4508 26.7337C71.2853 26.7601 71.1439 26.8009 71.0263 26.856C70.9112 26.9112 70.8225 26.9831 70.7601 27.0719C70.7002 27.1582 70.6702 27.2613 70.6702 27.3812C70.6702 27.5635 70.735 27.7026 70.8645 27.7985C70.9964 27.8944 71.163 27.9424 71.3645 27.9424ZM76.0769 31.072C75.8659 31.072 75.6668 31.0552 75.4798 31.0217C75.2927 30.9905 75.132 30.9485 74.9977 30.8958L75.3862 29.6187C75.5589 29.6763 75.7148 29.7099 75.8539 29.7195C75.9954 29.729 76.1165 29.7063 76.2172 29.6511C76.3203 29.5983 76.3994 29.5036 76.4546 29.3669L76.523 29.2014L74.5589 23.4746H76.4006L77.4187 27.4172H77.4762L78.5086 23.4746H80.3612L78.2784 29.5288C78.1777 29.831 78.035 30.0972 77.8503 30.3274C77.6681 30.56 77.4319 30.7423 77.1417 30.8742C76.8539 31.0061 76.499 31.072 76.0769 31.072Z" fill="#4B587C"/>
<path d="M43.538 15.1636C42.7124 15.1636 41.9763 15.0117 41.3298 14.7079C40.6873 14.4042 40.1771 13.9855 39.7993 13.452C39.4216 12.9184 39.2249 12.307 39.2093 11.6177H41.6628C41.6901 12.0811 41.8848 12.4569 42.247 12.7451C42.6092 13.0333 43.0395 13.1774 43.538 13.1774C43.9352 13.1774 44.2857 13.0898 44.5895 12.9145C44.8971 12.7354 45.1366 12.4881 45.308 12.1727C45.4832 11.8533 45.5709 11.4872 45.5709 11.0744C45.5709 10.6538 45.4813 10.2839 45.3021 9.96452C45.1269 9.64518 44.8835 9.39594 44.5719 9.2168C44.2604 9.03765 43.904 8.94613 43.5029 8.94224C43.1524 8.94224 42.8117 9.01429 42.4806 9.15838C42.1535 9.30247 41.8984 9.49914 41.7154 9.74838L39.4664 9.34531L40.033 3.03636H47.3467V5.1043H42.1185L41.8089 8.10105H41.879C42.0892 7.80507 42.4066 7.55972 42.8311 7.365C43.2556 7.17028 43.7307 7.07292 44.2565 7.07292C44.977 7.07292 45.6195 7.24233 46.1842 7.58114C46.7489 7.91996 47.1948 8.38534 47.522 8.97729C47.8491 9.56535 48.0107 10.243 48.0068 11.0102C48.0107 11.8163 47.8238 12.5329 47.446 13.1599C47.0722 13.783 46.5484 14.2737 45.8746 14.632C45.2048 14.9864 44.4259 15.1636 43.538 15.1636Z" fill="#4B587C"/>
</g>
<defs>
<clipPath id="clip0_4090_4">
<rect width="122" height="37" fill="white"/>
</clipPath>
</defs>
</svg>
