<svg width="122" height="37" viewBox="0 0 122 37" fill="none" xmlns="http://www.w3.org/2000/svg">
<g clip-path="url(#clip0_4090_4)">
<path d="M104.953 36.286C100.733 37.92 99.017 36.372 99.017 35.395C100.512 35.269 104.084 35.064 104.953 36.286ZM110.309 34.95C109.261 35.7202 107.974 36.093 106.676 36.0019C105.379 35.9109 104.156 35.3619 103.226 34.453C104.666 34.053 108.598 33.579 110.309 34.95ZM103.17 31.774C103.33 33.807 101.248 34.95 99 35.115C99.41 33.07 101.509 32.157 103.17 31.774ZM107.202 29.9C107.44 30.769 107.113 33.128 103.879 34.064C104.018 32.471 104.865 30.397 107.202 29.9ZM113.615 32.265C112.786 33.0923 111.693 33.6025 110.526 33.7069C109.359 33.8112 108.193 33.503 107.23 32.836C108.526 32.168 111.638 31.266 113.615 32.265ZM110.198 27.559C110.641 28.415 110.735 30.854 107.872 32.322C107.706 30.752 108.337 28.067 110.198 27.559ZM117.281 28.507C117.011 29.0373 116.637 29.5073 116.18 29.8884C115.723 30.2695 115.194 30.5538 114.624 30.724C114.059 30.8898 113.466 30.9363 112.883 30.8605C112.299 30.7848 111.738 30.5884 111.234 30.284C113.039 28.587 115.919 27.936 117.281 28.507ZM113.001 23.96C114.285 26.2 112.928 28.758 111.516 29.809C110.888 27.727 111.465 25.458 113.001 23.96ZM119.663 23.863C119.818 27.342 116.185 27.153 114.479 27.176C115.016 26.445 118.001 23.795 119.663 23.863ZM115.183 20.613C115.858 21.356 116.871 24.212 114.628 26.542C113.925 24.857 113.771 22.27 115.183 20.613ZM121.568 19.071C121.684 21.881 119.319 23.303 117.038 23.281C117.724 21.927 119.558 19.317 121.568 19.071ZM116.783 17.135C118.295 18.025 118.123 20.899 117.231 22.395C116.229 21.002 115.481 19.271 116.783 17.135ZM121.667 14.502C122.415 17.061 120.217 18.792 118.898 18.94C119.236 17.718 119.678 15.553 121.667 14.502ZM117.06 13.651C118.727 14.486 119.517 16.483 118.893 18.283C117.73 17.346 116.329 15.364 117.06 13.651ZM121.745 10.555C122.775 13.668 120.41 14.685 119.53 14.935C119.635 13.611 120.477 10.972 121.745 10.555ZM117.126 9.738C117.802 9.933 119.729 11.515 119.38 14.348C118.112 13.634 116.572 12.274 117.126 9.738ZM121.047 5.838C122.199 9.664 120.277 11.235 119.646 11.548C119.546 10.338 119.424 7.511 121.047 5.838ZM116.783 5.934C117.99 6.271 119.513 8.487 119.441 10.618C118.245 10.07 116.456 7.791 116.783 5.934ZM117.143 0C119.945 2.896 120.338 5.18 119.519 7.996C118.25 6.854 117.237 3.427 117.143 0ZM17.047 36.286C21.267 37.92 22.983 36.372 22.983 35.395C21.488 35.269 17.916 35.064 17.047 36.286ZM11.69 34.95C12.738 35.7202 14.0254 36.093 15.3228 36.0019C16.6201 35.9109 17.8429 35.3619 18.773 34.453C17.333 34.053 13.401 33.579 11.69 34.95ZM18.829 31.774C18.669 33.807 20.751 34.95 22.999 35.115C22.589 33.07 20.49 32.157 18.829 31.774ZM14.798 29.9C14.56 30.769 14.887 33.128 18.121 34.064C17.982 32.471 17.135 30.397 14.798 29.9ZM8.38501 32.265C9.21426 33.0923 10.3074 33.6025 11.4741 33.7069C12.6408 33.8112 13.8071 33.503 14.77 32.836C13.474 32.168 10.362 31.266 8.38501 32.265ZM11.802 27.559C11.359 28.415 11.265 30.854 14.128 32.322C14.294 30.752 13.663 28.067 11.802 27.559ZM4.71901 28.507C4.98853 29.0373 5.36304 29.5073 5.81979 29.8884C6.27655 30.2695 6.80601 30.5538 7.37601 30.724C7.94069 30.8898 8.53367 30.9363 9.11728 30.8605C9.70089 30.7848 10.2624 30.5884 10.766 30.284C8.96101 28.587 6.08101 27.936 4.71901 28.507ZM8.99901 23.96C7.71501 26.2 9.07201 28.758 10.484 29.809C11.112 27.727 10.536 25.458 9.00001 23.96H8.99901ZM2.33701 23.863C2.18201 27.342 5.81501 27.153 7.52101 27.176C6.98401 26.445 3.99901 23.795 2.33701 23.863ZM6.81701 20.613C6.14201 21.356 5.12901 24.212 7.37201 26.542C8.07501 24.857 8.22901 22.27 6.81701 20.613ZM0.433011 19.071C0.317011 21.881 2.68201 23.303 4.96301 23.281C4.27701 21.927 2.44301 19.317 0.433011 19.071ZM5.21801 17.135C3.70601 18.025 3.87801 20.899 4.77001 22.395C5.77201 21.002 6.52001 19.271 5.21801 17.135ZM0.333011 14.502C-0.414989 17.061 1.78301 18.792 3.10201 18.94C2.76401 17.718 2.32101 15.553 0.332011 14.502H0.333011ZM4.94001 13.651C3.27301 14.486 2.48301 16.483 3.10701 18.283C4.27001 17.346 5.67101 15.364 4.94001 13.651ZM0.255011 10.555C-0.774989 13.668 1.59001 14.685 2.47001 14.935C2.36501 13.611 1.52301 10.972 0.255011 10.555ZM4.87401 9.738C4.19801 9.933 2.27101 11.515 2.62001 14.348C3.88801 13.634 5.42801 12.274 4.87401 9.738ZM0.953011 5.838C-0.198989 9.664 1.72301 11.235 2.35401 11.548C2.45401 10.338 2.57601 7.511 0.953011 5.838ZM5.21701 5.934C4.01001 6.271 2.48701 8.487 2.55901 10.618C3.75501 10.07 5.54401 7.791 5.21701 5.934ZM4.85701 0C2.05501 2.896 1.66201 5.18 2.48101 7.996C3.75001 6.854 4.76301 3.427 4.85701 0Z" fill="#4B587C"/>
<path d="M21.5767 8.47366V7.12397H27.3884V8.47366H25.3035V14H23.665V8.47366H21.5767ZM29.8595 14.0974C29.3178 14.0974 28.8523 13.9866 28.4628 13.765C28.0756 13.5412 27.7768 13.23 27.5664 12.8316C27.3582 12.431 27.2541 11.9665 27.2541 11.4383C27.2541 10.9078 27.3582 10.4434 27.5664 10.0449C27.7768 9.64428 28.0756 9.33316 28.4628 9.11157C28.8523 8.88774 29.3178 8.77583 29.8595 8.77583C30.4012 8.77583 30.8656 8.88774 31.2528 9.11157C31.6423 9.33316 31.9411 9.64428 32.1493 10.0449C32.3597 10.4434 32.4649 10.9078 32.4649 11.4383C32.4649 11.9665 32.3597 12.431 32.1493 12.8316C31.9411 13.23 31.6423 13.5412 31.2528 13.765C30.8656 13.9866 30.4012 14.0974 29.8595 14.0974ZM29.8696 12.8585C30.0665 12.8585 30.2333 12.798 30.3698 12.6772C30.5064 12.5563 30.6105 12.3884 30.6821 12.1736C30.7559 11.9587 30.7929 11.7102 30.7929 11.4282C30.7929 11.1417 30.7559 10.891 30.6821 10.6761C30.6105 10.4613 30.5064 10.2934 30.3698 10.1725C30.2333 10.0517 30.0665 9.99122 29.8696 9.99122C29.6659 9.99122 29.4935 10.0517 29.3525 10.1725C29.2138 10.2934 29.1074 10.4613 29.0336 10.6761C28.9619 10.891 28.9261 11.1417 28.9261 11.4282C28.9261 11.7102 28.9619 11.9587 29.0336 12.1736C29.1074 12.3884 29.2138 12.5563 29.3525 12.6772C29.4935 12.798 29.6659 12.8585 29.8696 12.8585ZM33.3059 15.9339V8.84297H34.9309V9.72598H34.9813C35.0484 9.5693 35.1436 9.41822 35.2667 9.27273C35.392 9.12724 35.5509 9.00861 35.7434 8.91684C35.9381 8.82283 36.1709 8.77583 36.4418 8.77583C36.7999 8.77583 37.1345 8.86983 37.4456 9.05785C37.759 9.24587 38.0119 9.53573 38.2044 9.92743C38.3969 10.3191 38.4932 10.8183 38.4932 11.4248C38.4932 12.009 38.4003 12.4981 38.2145 12.892C38.0309 13.286 37.7825 13.5814 37.4691 13.7784C37.158 13.9754 36.8122 14.0739 36.4317 14.0739C36.172 14.0739 35.9471 14.0313 35.7568 13.9463C35.5666 13.8612 35.4066 13.7493 35.2767 13.6105C35.1491 13.4718 35.0507 13.3229 34.9813 13.164H34.9477V15.9339H33.3059ZM34.9141 11.4215C34.9141 11.699 34.9511 11.9408 35.0249 12.1467C35.101 12.3526 35.2096 12.5127 35.3506 12.6268C35.4938 12.7387 35.6651 12.7947 35.8643 12.7947C36.0657 12.7947 36.237 12.7387 36.378 12.6268C36.519 12.5127 36.6253 12.3526 36.6969 12.1467C36.7708 11.9408 36.8077 11.699 36.8077 11.4215C36.8077 11.1439 36.7708 10.9033 36.6969 10.6996C36.6253 10.496 36.519 10.3382 36.378 10.2262C36.2392 10.1143 36.068 10.0584 35.8643 10.0584C35.6628 10.0584 35.4916 10.1132 35.3506 10.2229C35.2096 10.3326 35.101 10.4892 35.0249 10.6929C34.9511 10.8966 34.9141 11.1395 34.9141 11.4215ZM51.541 15.9339V8.84297H53.166V9.72598H53.2164C53.2835 9.5693 53.3786 9.41822 53.5017 9.27273C53.6271 9.12724 53.786 9.00861 53.9785 8.91684C54.1732 8.82283 54.406 8.77583 54.6768 8.77583C55.035 8.77583 55.3696 8.86983 55.6807 9.05785C55.9941 9.24587 56.247 9.53573 56.4395 9.92743C56.632 10.3191 56.7282 10.8183 56.7282 11.4248C56.7282 12.009 56.6354 12.4981 56.4496 12.892C56.266 13.286 56.0176 13.5814 55.7042 13.7784C55.3931 13.9754 55.0473 14.0739 54.6668 14.0739C54.4071 14.0739 54.1822 14.0313 53.9919 13.9463C53.8017 13.8612 53.6416 13.7493 53.5118 13.6105C53.3842 13.4718 53.2857 13.3229 53.2164 13.164H53.1828V15.9339H51.541ZM53.1492 11.4215C53.1492 11.699 53.1861 11.9408 53.26 12.1467C53.3361 12.3526 53.4447 12.5127 53.5857 12.6268C53.7289 12.7387 53.9002 12.7947 54.0994 12.7947C54.3008 12.7947 54.472 12.7387 54.6131 12.6268C54.7541 12.5127 54.8604 12.3526 54.932 12.1467C55.0059 11.9408 55.0428 11.699 55.0428 11.4215C55.0428 11.1439 55.0059 10.9033 54.932 10.6996C54.8604 10.496 54.7541 10.3382 54.6131 10.2262C54.4743 10.1143 54.3031 10.0584 54.0994 10.0584C53.8979 10.0584 53.7267 10.1132 53.5857 10.2229C53.4447 10.3326 53.3361 10.4892 53.26 10.6929C53.1861 10.8966 53.1492 11.1395 53.1492 11.4215ZM57.5886 14V8.84297H59.1834V9.78306H59.2371C59.3311 9.44284 59.4844 9.18991 59.6971 9.02428C59.9097 8.8564 60.157 8.77247 60.4391 8.77247C60.5152 8.77247 60.5935 8.77806 60.6741 8.78926C60.7547 8.79821 60.8296 8.81276 60.899 8.8329V10.2598C60.8207 10.233 60.7177 10.2117 60.5901 10.196C60.4648 10.1804 60.3529 10.1725 60.2544 10.1725C60.0597 10.1725 59.884 10.2162 59.7273 10.3035C59.5728 10.3885 59.4508 10.5083 59.3613 10.6627C59.274 10.8149 59.2304 10.994 59.2304 11.1999V14H57.5886ZM63.7075 14.0974C63.1659 14.0974 62.7003 13.9866 62.3108 13.765C61.9236 13.5412 61.6248 13.23 61.4144 12.8316C61.2062 12.431 61.1021 11.9665 61.1021 11.4383C61.1021 10.9078 61.2062 10.4434 61.4144 10.0449C61.6248 9.64428 61.9236 9.33316 62.3108 9.11157C62.7003 8.88774 63.1659 8.77583 63.7075 8.77583C64.2492 8.77583 64.7136 8.88774 65.1009 9.11157C65.4903 9.33316 65.7891 9.64428 65.9973 10.0449C66.2077 10.4434 66.3129 10.9078 66.3129 11.4383C66.3129 11.9665 66.2077 12.431 65.9973 12.8316C65.7891 13.23 65.4903 13.5412 65.1009 13.765C64.7136 13.9866 64.2492 14.0974 63.7075 14.0974ZM63.7176 12.8585C63.9146 12.8585 64.0813 12.798 64.2178 12.6772C64.3544 12.5563 64.4585 12.3884 64.5301 12.1736C64.604 11.9587 64.6409 11.7102 64.6409 11.4282C64.6409 11.1417 64.604 10.891 64.5301 10.6761C64.4585 10.4613 64.3544 10.2934 64.2178 10.1725C64.0813 10.0517 63.9146 9.99122 63.7176 9.99122C63.5139 9.99122 63.3416 10.0517 63.2005 10.1725C63.0618 10.2934 62.9555 10.4613 62.8816 10.6761C62.81 10.891 62.7741 11.1417 62.7741 11.4282C62.7741 11.7102 62.81 11.9587 62.8816 12.1736C62.9555 12.3884 63.0618 12.5563 63.2005 12.6772C63.3416 12.798 63.5139 12.8585 63.7176 12.8585ZM69.0375 14.0739C68.6569 14.0739 68.3111 13.9754 68 13.7784C67.6889 13.5814 67.4404 13.286 67.2547 12.892C67.0689 12.4981 66.976 12.009 66.976 11.4248C66.976 10.8183 67.0722 10.3191 67.2647 9.92743C67.4572 9.53573 67.709 9.24587 68.0201 9.05785C68.3335 8.86983 68.6704 8.77583 69.0307 8.77583C69.3016 8.77583 69.5332 8.82283 69.7257 8.91684C69.9182 9.00861 70.0771 9.12724 70.2025 9.27273C70.3278 9.41822 70.423 9.5693 70.4879 9.72598H70.5214V7.12397H72.1632V14H70.5382V13.164H70.4879C70.4185 13.3229 70.32 13.4718 70.1924 13.6105C70.0648 13.7493 69.9048 13.8612 69.7123 13.9463C69.522 14.0313 69.2971 14.0739 69.0375 14.0739ZM69.6082 12.7947C69.8074 12.7947 69.9775 12.7387 70.1185 12.6268C70.2596 12.5127 70.3681 12.3526 70.4442 12.1467C70.5203 11.9408 70.5584 11.699 70.5584 11.4215C70.5584 11.1395 70.5203 10.8966 70.4442 10.6929C70.3704 10.4892 70.2618 10.3326 70.1185 10.2229C69.9775 10.1132 69.8074 10.0584 69.6082 10.0584C69.4045 10.0584 69.2322 10.1143 69.0912 10.2262C68.9502 10.3382 68.8427 10.496 68.7689 10.6996C68.6972 10.9033 68.6614 11.1439 68.6614 11.4215C68.6614 11.699 68.6984 11.9408 68.7722 12.1467C68.8461 12.3526 68.9524 12.5127 69.0912 12.6268C69.2322 12.7387 69.4045 12.7947 69.6082 12.7947ZM76.5287 11.774V8.84297H78.1672V14H76.6026V13.0398H76.5489C76.4347 13.3554 76.24 13.6061 75.9647 13.7918C75.6916 13.9754 75.3615 14.0671 74.9742 14.0671C74.6228 14.0671 74.3139 13.9866 74.0476 13.8254C73.7812 13.6643 73.5742 13.4393 73.4265 13.1506C73.2787 12.8596 73.2038 12.5194 73.2015 12.1299V8.84297H74.8433V11.8076C74.8455 12.0874 74.9194 12.3079 75.0649 12.469C75.2104 12.6302 75.4085 12.7107 75.6592 12.7107C75.8226 12.7107 75.9692 12.6749 76.099 12.6033C76.231 12.5294 76.3351 12.4231 76.4112 12.2843C76.4896 12.1433 76.5287 11.9732 76.5287 11.774ZM81.6195 14.0974C81.0755 14.0974 80.6089 13.9855 80.2194 13.7616C79.8322 13.5378 79.5345 13.2267 79.3263 12.8283C79.1182 12.4276 79.0141 11.9643 79.0141 11.4383C79.0141 10.91 79.1182 10.4467 79.3263 10.0483C79.5367 9.64764 79.8355 9.3354 80.2228 9.11157C80.6122 8.88774 81.0767 8.77583 81.6161 8.77583C82.0928 8.77583 82.5081 8.862 82.8617 9.03435C83.2176 9.2067 83.4951 9.45067 83.6943 9.76627C83.8958 10.0796 84.0021 10.4478 84.0133 10.8709H82.479C82.4476 10.6067 82.3581 10.3997 82.2104 10.2497C82.0649 10.0998 81.8746 10.0248 81.6396 10.0248C81.4493 10.0248 81.2826 10.0785 81.1393 10.186C80.9961 10.2911 80.8842 10.4478 80.8036 10.656C80.7253 10.8619 80.6861 11.1171 80.6861 11.4215C80.6861 11.7259 80.7253 11.9833 80.8036 12.1937C80.8842 12.4019 80.9961 12.5597 81.1393 12.6671C81.2826 12.7723 81.4493 12.8249 81.6396 12.8249C81.7918 12.8249 81.9261 12.7924 82.0425 12.7275C82.1611 12.6626 82.2585 12.5675 82.3346 12.4421C82.4107 12.3146 82.4588 12.1601 82.479 11.9788H84.0133C83.9976 12.4041 83.8913 12.7757 83.6943 13.0935C83.4996 13.4113 83.2254 13.6587 82.8718 13.8355C82.5204 14.0101 82.1029 14.0974 81.6195 14.0974ZM87.7644 8.84297V10.0517H84.511V8.84297H87.7644ZM85.1926 7.60744H86.8344V12.3784C86.8344 12.4791 86.8501 12.5608 86.8814 12.6235C86.915 12.6839 86.9631 12.7275 87.0258 12.7544C87.0884 12.779 87.1634 12.7913 87.2507 12.7913C87.3134 12.7913 87.3794 12.7857 87.4488 12.7745C87.5204 12.7611 87.5741 12.7499 87.61 12.741L87.8584 13.9261C87.7801 13.9485 87.6693 13.9765 87.526 14.0101C87.385 14.0436 87.216 14.0649 87.019 14.0739C86.6341 14.0918 86.3039 14.047 86.0286 13.9396C85.7555 13.8299 85.5463 13.6598 85.4008 13.4292C85.2575 13.1987 85.1881 12.9088 85.1926 12.5597V7.60744ZM93.0406 14.0974C92.4989 14.0974 92.0334 13.9866 91.6439 13.765C91.2567 13.5412 90.9579 13.23 90.7475 12.8316C90.5393 12.431 90.4352 11.9665 90.4352 11.4383C90.4352 10.9078 90.5393 10.4434 90.7475 10.0449C90.9579 9.64428 91.2567 9.33316 91.6439 9.11157C92.0334 8.88774 92.4989 8.77583 93.0406 8.77583C93.5823 8.77583 94.0467 8.88774 94.434 9.11157C94.8234 9.33316 95.1222 9.64428 95.3304 10.0449C95.5408 10.4434 95.646 10.9078 95.646 11.4383C95.646 11.9665 95.5408 12.431 95.3304 12.8316C95.1222 13.23 94.8234 13.5412 94.434 13.765C94.0467 13.9866 93.5823 14.0974 93.0406 14.0974ZM93.0507 12.8585C93.2477 12.8585 93.4144 12.798 93.5509 12.6772C93.6875 12.5563 93.7916 12.3884 93.8632 12.1736C93.9371 11.9587 93.974 11.7102 93.974 11.4282C93.974 11.1417 93.9371 10.891 93.8632 10.6761C93.7916 10.4613 93.6875 10.2934 93.5509 10.1725C93.4144 10.0517 93.2477 9.99122 93.0507 9.99122C92.847 9.99122 92.6747 10.0517 92.5336 10.1725C92.3949 10.2934 92.2886 10.4613 92.2147 10.6761C92.1431 10.891 92.1072 11.1417 92.1072 11.4282C92.1072 11.7102 92.1431 11.9587 92.2147 12.1736C92.2886 12.3884 92.3949 12.5563 92.5336 12.6772C92.6747 12.798 92.847 12.8585 93.0507 12.8585ZM99.4181 8.84297V10.0517H96.1009V8.84297H99.4181ZM96.7926 14V8.58109C96.7926 8.18268 96.8675 7.85253 97.0175 7.59065C97.1675 7.32653 97.3756 7.12956 97.642 6.99974C97.9083 6.86768 98.2161 6.80165 98.5653 6.80165C98.7936 6.80165 99.0085 6.81956 99.2099 6.85537C99.4136 6.88895 99.5647 6.91916 99.6632 6.94602L99.4013 8.14799C99.3408 8.12784 99.267 8.11105 99.1797 8.09762C99.0946 8.08419 99.0141 8.07748 98.938 8.07748C98.7455 8.07748 98.6134 8.12001 98.5418 8.20506C98.4702 8.29012 98.4343 8.40651 98.4343 8.55424V14H96.7926ZM47.1856 22.843V24.0517H43.9322V22.843H47.1856ZM44.6138 21.6074H46.2556V26.3784C46.2556 26.4791 46.2712 26.5608 46.3026 26.6235C46.3361 26.6839 46.3843 26.7275 46.4469 26.7544C46.5096 26.779 46.5846 26.7913 46.6719 26.7913C46.7345 26.7913 46.8006 26.7857 46.87 26.7745C46.9416 26.7611 46.9953 26.7499 47.0311 26.741L47.2796 27.9261C47.2012 27.9485 47.0904 27.9765 46.9472 28.0101C46.8062 28.0436 46.6372 28.0649 46.4402 28.0739C46.0552 28.0918 45.7251 28.047 45.4498 27.9396C45.1767 27.8299 44.9674 27.6598 44.8219 27.4292C44.6787 27.1987 44.6093 26.9088 44.6138 26.5597V21.6074ZM49.7758 25.0589V28H48.134V21.124H49.7221V23.7898H49.7792C49.8956 23.4719 50.0858 23.2235 50.3499 23.0444C50.6163 22.8654 50.942 22.7758 51.327 22.7758C51.6896 22.7758 52.0052 22.8564 52.2738 23.0176C52.5424 23.1765 52.7505 23.4014 52.8982 23.6924C53.0482 23.9834 53.1221 24.3236 53.1198 24.7131V28H51.478V25.0354C51.4803 24.7489 51.4087 24.5251 51.2632 24.3639C51.1177 24.2027 50.9129 24.1222 50.6488 24.1222C50.4764 24.1222 50.3242 24.1602 50.1921 24.2363C50.0623 24.3102 49.9605 24.4165 49.8866 24.5553C49.815 24.694 49.7781 24.8619 49.7758 25.0589ZM56.5553 28.0974C56.0159 28.0974 55.5503 27.991 55.1586 27.7784C54.7692 27.5635 54.4692 27.258 54.2588 26.8618C54.0507 26.4634 53.9466 25.99 53.9466 25.4416C53.9466 24.9089 54.0518 24.4434 54.2622 24.0449C54.4726 23.6443 54.7692 23.3332 55.1519 23.1116C55.5347 22.8877 55.9857 22.7758 56.505 22.7758C56.8721 22.7758 57.2078 22.8329 57.5122 22.9471C57.8166 23.0612 58.0796 23.2302 58.3012 23.454C58.5228 23.6779 58.6951 23.9543 58.8182 24.2833C58.9414 24.6101 59.0029 24.985 59.0029 25.4081V25.8177H54.5207V24.8642H57.4753C57.473 24.6896 57.4316 24.534 57.351 24.3975C57.2705 24.2609 57.1597 24.1546 57.0187 24.0785C56.8799 24.0002 56.7198 23.961 56.5385 23.961C56.355 23.961 56.1905 24.0024 56.045 24.0852C55.8995 24.1658 55.7842 24.2766 55.6992 24.4176C55.6141 24.5564 55.5694 24.7142 55.5649 24.891V25.8613C55.5649 26.0717 55.6063 26.2564 55.6891 26.4153C55.7719 26.572 55.8894 26.694 56.0416 26.7812C56.1938 26.8685 56.3752 26.9122 56.5856 26.9122C56.731 26.9122 56.8631 26.892 56.9817 26.8518C57.1004 26.8115 57.2022 26.7522 57.2873 26.6738C57.3723 26.5955 57.4361 26.4992 57.4786 26.3851L58.9861 26.4287C58.9234 26.7667 58.7858 27.061 58.5732 27.3117C58.3628 27.5602 58.0863 27.7538 57.7439 27.8926C57.4014 28.0291 57.0052 28.0974 56.5553 28.0974ZM64.4143 28H61.8727V21.124H64.4109C65.1115 21.124 65.7147 21.2616 66.2206 21.5369C66.7286 21.81 67.1204 22.2039 67.3957 22.7187C67.671 23.2313 67.8086 23.8446 67.8086 24.5586C67.8086 25.2749 67.671 25.8904 67.3957 26.4052C67.1226 26.92 66.732 27.3151 66.2239 27.5904C65.7158 27.8635 65.1126 28 64.4143 28ZM63.5346 26.5832H64.3505C64.7355 26.5832 65.0611 26.5183 65.3275 26.3884C65.5961 26.2564 65.7986 26.0426 65.9352 25.7472C66.0739 25.4495 66.1433 25.0533 66.1433 24.5586C66.1433 24.064 66.0739 23.67 65.9352 23.3768C65.7964 23.0814 65.5916 22.8687 65.3208 22.7389C65.0522 22.6068 64.7209 22.5408 64.327 22.5408H63.5346V26.5832ZM70.2327 28.0873C69.9037 28.0873 69.6116 28.0325 69.3564 27.9228C69.1035 27.8109 68.9032 27.643 68.7554 27.4192C68.6099 27.1931 68.5372 26.91 68.5372 26.5697C68.5372 26.2832 68.5876 26.0415 68.6883 25.8445C68.789 25.6476 68.9278 25.4875 69.1046 25.3644C69.2814 25.2413 69.4851 25.1484 69.7157 25.0857C69.9462 25.0208 70.1924 24.9772 70.4543 24.9548C70.7475 24.9279 70.9836 24.9 71.1627 24.8709C71.3418 24.8395 71.4716 24.7959 71.5522 24.7399C71.635 24.6817 71.6764 24.6 71.6764 24.4948V24.478C71.6764 24.3057 71.6171 24.1725 71.4984 24.0785C71.3798 23.9845 71.2198 23.9375 71.0183 23.9375C70.8012 23.9375 70.6266 23.9845 70.4946 24.0785C70.3625 24.1725 70.2786 24.3023 70.2428 24.468L68.7286 24.4143C68.7733 24.1009 68.8886 23.8211 69.0744 23.5749C69.2624 23.3264 69.5198 23.1317 69.8466 22.9907C70.1756 22.8475 70.5707 22.7758 71.0318 22.7758C71.3608 22.7758 71.6641 22.815 71.9416 22.8933C72.2192 22.9694 72.4609 23.0814 72.6668 23.2291C72.8728 23.3746 73.0317 23.5536 73.1436 23.7663C73.2577 23.9789 73.3148 24.2218 73.3148 24.4948V28H71.7704V27.2815H71.7301C71.6383 27.4561 71.5208 27.6038 71.3776 27.7247C71.2366 27.8456 71.0698 27.9362 70.8773 27.9966C70.6871 28.0571 70.4722 28.0873 70.2327 28.0873ZM70.7397 27.0129C70.9165 27.0129 71.0754 26.9771 71.2164 26.9055C71.3597 26.8338 71.4738 26.7354 71.5589 26.61C71.6439 26.4824 71.6865 26.3347 71.6865 26.1668V25.6767C71.6395 25.7013 71.5824 25.7237 71.5152 25.7438C71.4503 25.7639 71.3787 25.783 71.3004 25.8009C71.222 25.8188 71.1414 25.8345 71.0586 25.8479C70.9758 25.8613 70.8963 25.8736 70.8202 25.8848C70.6658 25.9094 70.5337 25.9475 70.4241 25.999C70.3166 26.0504 70.2338 26.1176 70.1756 26.2004C70.1197 26.281 70.0917 26.3772 70.0917 26.4892C70.0917 26.6593 70.1521 26.7891 70.273 26.8786C70.3961 26.9681 70.5517 27.0129 70.7397 27.0129ZM75.1379 29.9339C74.9409 29.9339 74.7552 29.9182 74.5806 29.8869C74.406 29.8578 74.256 29.8186 74.1307 29.7694L74.4933 28.5775C74.6544 28.6312 74.7999 28.6625 74.9298 28.6715C75.0618 28.6804 75.1748 28.6592 75.2689 28.6077C75.3651 28.5585 75.439 28.47 75.4904 28.3425L75.5542 28.188L73.7211 22.843H75.4401L76.3902 26.5227H76.444L77.4075 22.843H79.1366L77.1927 28.4935C77.0987 28.7756 76.9655 29.024 76.7931 29.2389C76.623 29.456 76.4026 29.6261 76.1317 29.7492C75.8631 29.8723 75.5319 29.9339 75.1379 29.9339Z" fill="#4B587C"/>
<path d="M44.538 15.1636C43.7124 15.1636 42.9763 15.0117 42.3298 14.7079C41.6873 14.4042 41.1771 13.9855 40.7993 13.452C40.4216 12.9184 40.2249 12.307 40.2093 11.6177H42.6628C42.6901 12.0811 42.8848 12.4569 43.247 12.7451C43.6092 13.0333 44.0395 13.1774 44.538 13.1774C44.9352 13.1774 45.2857 13.0898 45.5895 12.9145C45.8971 12.7354 46.1366 12.4881 46.308 12.1727C46.4832 11.8533 46.5709 11.4872 46.5709 11.0744C46.5709 10.6538 46.4813 10.2839 46.3021 9.96452C46.1269 9.64518 45.8835 9.39594 45.5719 9.2168C45.2604 9.03765 44.904 8.94613 44.5029 8.94224C44.1524 8.94224 43.8117 9.01429 43.4806 9.15838C43.1535 9.30247 42.8984 9.49914 42.7154 9.74838L40.4664 9.34531L41.033 3.03636H48.3467V5.1043H43.1185L42.8089 8.10105H42.879C43.0892 7.80507 43.4066 7.55972 43.8311 7.365C44.2556 7.17028 44.7307 7.07292 45.2565 7.07292C45.977 7.07292 46.6195 7.24233 47.1842 7.58114C47.7489 7.91996 48.1948 8.38534 48.522 8.97729C48.8491 9.56535 49.0107 10.243 49.0068 11.0102C49.0107 11.8163 48.8238 12.5329 48.446 13.1599C48.0722 13.783 47.5484 14.2737 46.8746 14.632C46.2048 14.9864 45.4259 15.1636 44.538 15.1636Z" fill="#4B587C"/>
</g>
<defs>
<clipPath id="clip0_4090_4">
<rect width="122" height="37" fill="white"/>
</clipPath>
</defs>
</svg>
