<svg width="85" height="91" viewBox="0 0 85 91" fill="none" xmlns="http://www.w3.org/2000/svg">
<path d="M34.9918 90.6341H4.92666C2.20574 90.6341 0 88.4284 0 85.7074V4.92666C0 2.20574 2.20574 0 4.92666 0H34.6366C43.9914 0 52.0732 1.81445 58.8821 5.44336C65.7206 9.04275 70.9902 14.2353 74.6907 21.0212C78.4207 27.7774 80.2858 35.876 80.2858 45.317C80.2858 54.7582 78.4355 62.8715 74.7351 69.6573C71.0346 76.4136 65.7947 81.606 59.0154 85.235C52.2361 88.8344 44.2283 90.6341 34.9918 90.6341ZM24.6896 64.8191C24.6896 67.5401 26.8954 69.7458 29.6163 69.7458H34.1037C38.6035 69.7458 42.4371 69.023 45.6048 67.5773C48.8021 66.1316 51.2296 63.6385 52.8873 60.0982C54.5748 56.5579 55.4185 51.6308 55.4185 45.317C55.4185 39.0033 54.56 34.0763 52.8429 30.5359C51.1555 26.9955 48.6688 24.5025 45.3828 23.0568C42.1263 21.6111 38.1299 20.8883 33.3931 20.8883H29.6163C26.8954 20.8883 24.6896 23.094 24.6896 25.8149V64.8191Z" fill="white"/>
<mask id="path-2-inside-1_9_5" fill="white">
<path d="M39.0973 90.6341H9.03213C6.31121 90.6341 4.10547 88.4284 4.10547 85.7074V4.92666C4.10547 2.20574 6.31121 0 9.03213 0H38.742C48.0969 0 56.1787 1.81445 62.9876 5.44336C69.8261 9.04275 75.0957 14.2353 78.7962 21.0212C82.5262 27.7774 84.3913 35.876 84.3913 45.317C84.3913 54.7582 82.541 62.8715 78.8405 69.6573C75.1401 76.4136 69.9002 81.606 63.1209 85.235C56.3416 88.8344 48.3337 90.6341 39.0973 90.6341ZM28.7951 64.8191C28.7951 67.5401 31.0009 69.7458 33.7218 69.7458H38.2092C42.7089 69.7458 46.5426 69.023 49.7102 67.5773C52.9076 66.1316 55.335 63.6385 56.9928 60.0982C58.6803 56.5579 59.524 51.6308 59.524 45.317C59.524 39.0033 58.6654 34.0763 56.9484 30.5359C55.261 26.9955 52.7742 24.5025 49.4882 23.0568C46.2318 21.6111 42.2353 20.8883 37.4986 20.8883H33.7218C31.0009 20.8883 28.7951 23.094 28.7951 25.8149V64.8191Z"/>
</mask>
<path d="M39.0973 90.6341H9.03213C6.31121 90.6341 4.10547 88.4284 4.10547 85.7074V4.92666C4.10547 2.20574 6.31121 0 9.03213 0H38.742C48.0969 0 56.1787 1.81445 62.9876 5.44336C69.8261 9.04275 75.0957 14.2353 78.7962 21.0212C82.5262 27.7774 84.3913 35.876 84.3913 45.317C84.3913 54.7582 82.541 62.8715 78.8405 69.6573C75.1401 76.4136 69.9002 81.606 63.1209 85.235C56.3416 88.8344 48.3337 90.6341 39.0973 90.6341ZM28.7951 64.8191C28.7951 67.5401 31.0009 69.7458 33.7218 69.7458H38.2092C42.7089 69.7458 46.5426 69.023 49.7102 67.5773C52.9076 66.1316 55.335 63.6385 56.9928 60.0982C58.6803 56.5579 59.524 51.6308 59.524 45.317C59.524 39.0033 58.6654 34.0763 56.9484 30.5359C55.261 26.9955 52.7742 24.5025 49.4882 23.0568C46.2318 21.6111 42.2353 20.8883 37.4986 20.8883H33.7218C31.0009 20.8883 28.7951 23.094 28.7951 25.8149V64.8191Z" fill="white"/>
<path d="M62.9876 5.44336L62.6014 6.16799L62.6051 6.16997L62.9876 5.44336ZM78.7962 21.0212L78.0752 21.4143L78.0773 21.418L78.7962 21.0212ZM78.8405 69.6573L79.5607 70.0517L79.5614 70.0504L78.8405 69.6573ZM63.1209 85.235L63.506 85.9602L63.5084 85.9589L63.1209 85.235ZM49.7102 67.5773L49.3719 66.8291L49.3693 66.8303L49.7102 67.5773ZM56.9928 60.0982L56.2516 59.7449L56.2492 59.75L56.9928 60.0982ZM56.9484 30.5359L56.2072 30.8892L56.2096 30.8942L56.9484 30.5359ZM49.4882 23.0568L49.1551 23.8073L49.1576 23.8084L49.4882 23.0568ZM39.0973 89.813H9.03213V91.4552H39.0973V89.813ZM4.92658 85.7074V4.92666H3.28436V85.7074H4.92658ZM9.03213 0.82111H38.742V-0.82111H9.03213V0.82111ZM38.742 0.82111C47.9905 0.82111 55.9341 2.61454 62.6014 6.16798L63.3738 4.71874C56.4233 1.01436 48.2032 -0.82111 38.742 -0.82111V0.82111ZM62.6051 6.16997C69.3004 9.69397 74.4523 14.7705 78.0753 21.4143L79.517 20.628C75.7391 13.7001 70.3518 8.39153 63.37 4.71675L62.6051 6.16997ZM78.0773 21.418C81.7268 28.0284 83.5701 35.9841 83.5701 45.317H85.2124C85.2124 35.7679 83.3255 27.5264 79.515 20.6243L78.0773 21.418ZM83.5701 45.317C83.5701 54.6509 81.7413 62.6229 78.1197 69.2642L79.5614 70.0504C83.3407 63.12 85.2124 54.8654 85.2124 45.317H83.5701ZM78.1204 69.2629C74.4963 75.8796 69.3719 80.9575 62.7334 84.5111L63.5084 85.9589C70.4285 82.2546 75.7838 76.9475 79.5607 70.0517L78.1204 69.2629ZM62.7358 84.5098C56.097 88.0346 48.2266 89.813 39.0973 89.813V91.4552C48.4409 91.4552 56.5862 89.6342 63.506 85.9602L62.7358 84.5098ZM33.7218 70.5669H38.2092V68.9247H33.7218V70.5669ZM38.2092 70.5669C42.7935 70.5669 46.7501 69.8309 50.0512 68.3243L49.3693 66.8303C46.3352 68.2151 42.6243 68.9247 38.2092 68.9247V70.5669ZM50.0485 68.3255C53.445 66.7898 56.0057 64.1425 57.7364 60.4464L56.2492 59.75C54.6643 63.1346 52.3701 65.4735 49.3719 66.8291L50.0485 68.3255ZM57.734 60.4515C59.4966 56.7536 60.3451 51.6869 60.3451 45.317H58.7028C58.7028 51.5747 57.864 56.3621 56.2516 59.7449L57.734 60.4515ZM60.3451 45.317C60.3451 38.9459 59.4815 33.8773 57.6872 30.1776L56.2096 30.8942C57.8494 34.2754 58.7028 39.0607 58.7028 45.317H60.3451ZM57.6896 30.1826C55.9259 26.4823 53.3022 23.8377 49.8189 22.3052L49.1576 23.8084C52.2462 25.1672 54.596 27.5088 56.2072 30.8892L57.6896 30.1826ZM49.8214 22.3063C46.4316 20.8014 42.3142 20.0672 37.4986 20.0672V21.7094C42.1565 21.7094 46.032 22.4208 49.1551 23.8073L49.8214 22.3063ZM37.4986 20.0672H33.7218V21.7094H37.4986V20.0672ZM27.974 25.8149V64.8191H29.6162V25.8149H27.974ZM33.7218 68.9247C31.4543 68.9247 29.6162 67.0866 29.6162 64.8191H27.974C27.974 67.9936 30.5474 70.5669 33.7218 70.5669V68.9247ZM33.7218 20.0672C30.5474 20.0672 27.974 22.6405 27.974 25.8149H29.6162C29.6162 23.5475 31.4543 21.7094 33.7218 21.7094V20.0672ZM4.92658 4.92666C4.92658 2.65923 6.7647 0.82111 9.03213 0.82111V-0.82111C5.85772 -0.82111 3.28436 1.75226 3.28436 4.92666H4.92658ZM9.03213 89.813C6.7647 89.813 4.92658 87.9749 4.92658 85.7074H3.28436C3.28436 88.8819 5.85772 91.4552 9.03213 91.4552V89.813Z" fill="black" mask="url(#path-2-inside-1_9_5)"/>
<mask id="path-4-inside-2_9_5" fill="white">
<path d="M26.8405 90.6341H4.92666C2.20574 90.6341 0 88.4284 0 85.7074V4.92666C0 2.20574 2.20574 0 4.92666 0H26.568C33.7436 0 39.9428 1.81445 45.1656 5.44336C50.4111 9.04275 54.4531 14.2353 57.2915 21.0212C60.1527 27.7774 61.5833 35.876 61.5833 45.317C61.5833 54.7582 60.1641 62.8715 57.3256 69.6573C54.4872 76.4136 50.4679 81.606 45.2678 85.235C40.0678 88.8344 33.9253 90.6341 26.8405 90.6341ZM18.9382 64.8191C18.9382 67.5401 21.144 69.7458 23.8649 69.7458H26.1593C29.6108 69.7458 32.5515 69.023 34.9812 67.5773C37.4337 66.1316 39.2957 63.6385 40.5673 60.0982C41.8617 56.5579 42.5088 51.6308 42.5088 45.317C42.5088 39.0033 41.8503 34.0763 40.5332 30.5359C39.2389 26.9955 37.3314 24.5025 34.8109 23.0568C32.313 21.6111 29.2475 20.8883 25.6142 20.8883H23.8649C21.144 20.8883 18.9382 23.094 18.9382 25.8149V64.8191Z"/>
</mask>
<path d="M26.8405 90.6341H4.92666C2.20574 90.6341 0 88.4284 0 85.7074V4.92666C0 2.20574 2.20574 0 4.92666 0H26.568C33.7436 0 39.9428 1.81445 45.1656 5.44336C50.4111 9.04275 54.4531 14.2353 57.2915 21.0212C60.1527 27.7774 61.5833 35.876 61.5833 45.317C61.5833 54.7582 60.1641 62.8715 57.3256 69.6573C54.4872 76.4136 50.4679 81.606 45.2678 85.235C40.0678 88.8344 33.9253 90.6341 26.8405 90.6341ZM18.9382 64.8191C18.9382 67.5401 21.144 69.7458 23.8649 69.7458H26.1593C29.6108 69.7458 32.5515 69.023 34.9812 67.5773C37.4337 66.1316 39.2957 63.6385 40.5673 60.0982C41.8617 56.5579 42.5088 51.6308 42.5088 45.317C42.5088 39.0033 41.8503 34.0763 40.5332 30.5359C39.2389 26.9955 37.3314 24.5025 34.8109 23.0568C32.313 21.6111 29.2475 20.8883 25.6142 20.8883H23.8649C21.144 20.8883 18.9382 23.094 18.9382 25.8149V64.8191Z" fill="white"/>
<path d="M45.1656 5.44336L44.697 6.11769L44.701 6.12041L45.1656 5.44336ZM57.2915 21.0212L56.534 21.338L56.5354 21.3413L57.2915 21.0212ZM57.3256 69.6573L58.0826 69.9753L58.0831 69.9742L57.3256 69.6573ZM45.2678 85.235L45.7352 85.9102L45.7378 85.9084L45.2678 85.235ZM34.9812 67.5773L34.5642 66.8699L34.5613 66.8716L34.9812 67.5773ZM40.5673 60.0982L39.7961 59.8162L39.7945 59.8206L40.5673 60.0982ZM40.5332 30.5359L39.762 30.8178L39.7636 30.8222L40.5332 30.5359ZM34.8109 23.0568L34.3996 23.7675L34.4024 23.7691L34.8109 23.0568ZM26.8405 89.813H4.92666V91.4552H26.8405V89.813ZM0.82111 85.7074V4.92666H-0.82111V85.7074H0.82111ZM4.92666 0.82111H26.568V-0.82111H4.92666V0.82111ZM26.568 0.82111C33.5985 0.82111 39.6291 2.59633 44.697 6.11768L45.6341 4.76905C40.2566 1.03257 33.8888 -0.82111 26.568 -0.82111V0.82111ZM44.701 6.12041C49.7969 9.61713 53.7468 14.6746 56.534 21.338L58.0491 20.7043C55.1594 13.796 51.0253 8.46838 45.6301 4.76632L44.701 6.12041ZM56.5354 21.3413C59.3433 27.9718 60.7622 35.9558 60.7622 45.317H62.4044C62.4044 35.7962 60.9621 27.583 58.0477 20.701L56.5354 21.3413ZM60.7622 45.317C60.7622 54.6789 59.3545 62.679 56.5681 69.3404L58.0831 69.9742C60.9736 63.0639 62.4044 54.8374 62.4044 45.317H60.7622ZM56.5686 69.3393C53.7807 75.9751 49.8518 81.0347 44.7979 84.5617L45.7378 85.9084C51.084 82.1774 55.1936 76.852 58.0826 69.9753L56.5686 69.3393ZM44.8005 84.5599C39.754 88.053 33.7792 89.813 26.8405 89.813V91.4552C34.0714 91.4552 40.3816 89.6158 45.7352 85.9102L44.8005 84.5599ZM23.8649 70.5669H26.1593V68.9247H23.8649V70.5669ZM26.1593 70.5669C29.726 70.5669 32.819 69.8193 35.401 68.2829L34.5613 66.8716C32.284 68.2267 29.4956 68.9247 26.1593 68.9247V70.5669ZM35.3982 68.2847C38.0624 66.7141 40.0247 64.038 41.3401 60.3758L39.7945 59.8206C38.5667 63.2391 36.8049 65.5491 34.5642 66.8699L35.3982 68.2847ZM41.3385 60.3802C42.6808 56.7087 43.3299 51.6711 43.3299 45.317H41.6877C41.6877 51.5905 41.0426 56.407 39.7961 59.8163L41.3385 60.3802ZM43.3299 45.317C43.3299 38.9622 42.6693 33.9229 41.3028 30.2496L39.7636 30.8222C41.0313 34.2298 41.6877 39.0445 41.6877 45.317H43.3299ZM41.3044 30.2539C39.9637 26.5869 37.9523 23.912 35.2194 22.3445L34.4024 23.7691C36.7105 25.0929 38.514 27.4042 39.762 30.8178L41.3044 30.2539ZM35.2222 22.3461C32.5709 20.8116 29.3551 20.0672 25.6142 20.0672V21.7094C29.14 21.7094 32.0552 22.4106 34.3996 23.7675L35.2222 22.3461ZM25.6142 20.0672H23.8649V21.7094H25.6142V20.0672ZM18.1171 25.8149V64.8191H19.7593V25.8149H18.1171ZM23.8649 68.9247C21.5974 68.9247 19.7593 67.0866 19.7593 64.8191H18.1171C18.1171 67.9936 20.6905 70.5669 23.8649 70.5669V68.9247ZM23.8649 20.0672C20.6905 20.0672 18.1171 22.6405 18.1171 25.8149H19.7593C19.7593 23.5475 21.5974 21.7094 23.8649 21.7094V20.0672ZM0.82111 4.92666C0.82111 2.65923 2.65923 0.82111 4.92666 0.82111V-0.82111C1.75226 -0.82111 -0.82111 1.75226 -0.82111 4.92666H0.82111ZM4.92666 89.813C2.65923 89.813 0.82111 87.9749 0.82111 85.7074H-0.82111C-0.82111 88.8819 1.75225 91.4552 4.92666 91.4552V89.813Z" fill="black" mask="url(#path-4-inside-2_9_5)"/>
</svg>
