<svg width="160" height="37" viewBox="0 0 160 37" fill="none" xmlns="http://www.w3.org/2000/svg">
<rect x="0.5" y="0.5" width="159" height="36" rx="9.5" fill="white" stroke="#DD592F"/>
<path opacity="0.855" fill-rule="evenodd" clip-rule="evenodd" d="M19.3 5.97999C19.7758 5.93514 20.2425 5.9818 20.7 6.11999C21.1352 6.64976 21.6485 7.06976 22.24 7.37999C23.0202 7.09511 23.8136 7.04845 24.62 7.23999C24.9261 7.92411 25.2061 8.62411 25.46 9.33999C26.2674 9.68671 27.0607 10.0601 27.84 10.46C27.8304 11.2094 27.6904 11.956 27.42 12.7C27.9596 13.4677 28.4263 14.261 28.82 15.08C28.4765 15.893 28.0098 16.6397 27.42 17.32C27.7049 18.1002 27.7515 18.8936 27.56 19.7C26.8759 20.0061 26.1759 20.2861 25.46 20.54C25.1133 21.3474 24.7399 22.1407 24.34 22.92C23.5906 22.9104 22.844 22.7704 22.1 22.5C21.3323 23.0396 20.539 23.5063 19.72 23.9C18.907 23.5565 18.1603 23.0898 17.48 22.5C16.6998 22.7849 15.9064 22.8315 15.1 22.64C14.7939 21.9559 14.5139 21.2559 14.26 20.54C13.4526 20.1933 12.6593 19.8199 11.88 19.42C11.8896 18.6706 12.0296 17.9239 12.3 17.18C11.7604 16.4123 11.2937 15.619 10.9 14.8C11.2435 13.9869 11.7102 13.2403 12.3 12.56C12.0151 11.7797 11.9685 10.9864 12.16 10.18C12.8441 9.87386 13.5441 9.59386 14.26 9.33999C14.6067 8.53261 14.9801 7.73928 15.38 6.95999C16.1294 6.96958 16.876 7.10958 17.62 7.37999C18.3562 7.10931 18.9162 6.64265 19.3 5.97999ZM18.18 9.05999C23.6347 8.68117 26.108 11.2012 25.6 16.62C23.8394 20.631 20.8994 21.7977 16.78 20.12C13.9079 17.9559 13.2079 15.2026 14.68 11.86C15.5734 10.5542 16.7401 9.62088 18.18 9.05999Z" fill="#AB5720"/>
<path opacity="0.944" fill-rule="evenodd" clip-rule="evenodd" d="M18.18 9.89999C23.1688 9.42861 25.3621 11.6686 24.76 16.62C23.5335 19.5541 21.3401 20.6275 18.18 19.84C14.9648 18.3233 13.9848 15.85 15.24 12.42C15.9415 11.2129 16.9215 10.3729 18.18 9.89999Z" fill="#C07037"/>
<path opacity="0.943" fill-rule="evenodd" clip-rule="evenodd" d="M16.78 23.34C17.8708 23.6889 18.8975 24.1556 19.86 24.74C20.14 24.6933 20.42 24.6467 20.7 24.6C21.5287 23.2032 22.602 22.9699 23.92 23.9C24.2032 23.6657 24.5298 23.5724 24.9 23.62C24.9 26.3267 24.9 29.0333 24.9 31.74C23.1137 31.4086 21.4337 30.7553 19.86 29.78C18.2863 30.7553 16.6063 31.4086 14.82 31.74C14.82 29.0333 14.82 26.3267 14.82 23.62C15.5366 23.7044 16.1899 23.6111 16.78 23.34Z" fill="#DD592F"/>
<path d="M44.38 22H42.568V14.944H40.24V13.432H46.708V14.944H44.38V22ZM52.9935 18.712C52.9935 19.256 52.9175 19.74 52.7655 20.164C52.6215 20.588 52.4095 20.948 52.1295 21.244C51.8575 21.532 51.5255 21.752 51.1335 21.904C50.7415 22.048 50.2975 22.12 49.8015 22.12C49.3455 22.12 48.9215 22.048 48.5295 21.904C48.1455 21.752 47.8135 21.532 47.5335 21.244C47.2535 20.948 47.0335 20.588 46.8735 20.164C46.7215 19.74 46.6455 19.256 46.6455 18.712C46.6455 17.984 46.7735 17.372 47.0295 16.876C47.2855 16.372 47.6535 15.988 48.1335 15.724C48.6135 15.46 49.1815 15.328 49.8375 15.328C50.4535 15.328 50.9975 15.46 51.4695 15.724C51.9415 15.988 52.3135 16.372 52.5855 16.876C52.8575 17.372 52.9935 17.984 52.9935 18.712ZM48.4695 18.712C48.4695 19.144 48.5135 19.508 48.6015 19.804C48.6975 20.092 48.8455 20.312 49.0455 20.464C49.2455 20.608 49.5055 20.68 49.8255 20.68C50.1455 20.68 50.4015 20.608 50.5935 20.464C50.7935 20.312 50.9375 20.092 51.0255 19.804C51.1215 19.508 51.1695 19.144 51.1695 18.712C51.1695 18.28 51.1215 17.92 51.0255 17.632C50.9375 17.344 50.7935 17.128 50.5935 16.984C50.3935 16.84 50.1335 16.768 49.8135 16.768C49.3415 16.768 48.9975 16.932 48.7815 17.26C48.5735 17.58 48.4695 18.064 48.4695 18.712ZM58.1192 15.328C58.8552 15.328 59.4512 15.616 59.9072 16.192C60.3632 16.76 60.5912 17.6 60.5912 18.712C60.5912 19.456 60.4832 20.084 60.2672 20.596C60.0512 21.1 59.7552 21.48 59.3792 21.736C59.0032 21.992 58.5672 22.12 58.0712 22.12C57.7592 22.12 57.4872 22.08 57.2552 22C57.0312 21.92 56.8392 21.816 56.6792 21.688C56.5192 21.56 56.3792 21.424 56.2592 21.28H56.1632C56.1952 21.432 56.2192 21.592 56.2352 21.76C56.2512 21.92 56.2592 22.08 56.2592 22.24V24.88H54.4712V15.448H55.9232L56.1752 16.3H56.2592C56.3792 16.124 56.5232 15.964 56.6912 15.82C56.8592 15.668 57.0592 15.548 57.2912 15.46C57.5312 15.372 57.8072 15.328 58.1192 15.328ZM57.5432 16.756C57.2312 16.756 56.9832 16.82 56.7992 16.948C56.6152 17.076 56.4792 17.272 56.3912 17.536C56.3112 17.792 56.2672 18.116 56.2592 18.508V18.7C56.2592 19.124 56.2992 19.484 56.3792 19.78C56.4592 20.068 56.5952 20.288 56.7872 20.44C56.9792 20.592 57.2392 20.668 57.5672 20.668C57.8392 20.668 58.0632 20.592 58.2392 20.44C58.4152 20.288 58.5472 20.064 58.6352 19.768C58.7232 19.472 58.7672 19.112 58.7672 18.688C58.7672 18.048 58.6672 17.568 58.4672 17.248C58.2752 16.92 57.9672 16.756 57.5432 16.756ZM68.8887 15.328C69.6247 15.328 70.2207 15.616 70.6767 16.192C71.1327 16.76 71.3607 17.6 71.3607 18.712C71.3607 19.456 71.2527 20.084 71.0367 20.596C70.8207 21.1 70.5247 21.48 70.1487 21.736C69.7727 21.992 69.3367 22.12 68.8407 22.12C68.5287 22.12 68.2567 22.08 68.0247 22C67.8007 21.92 67.6087 21.816 67.4487 21.688C67.2887 21.56 67.1487 21.424 67.0287 21.28H66.9327C66.9647 21.432 66.9887 21.592 67.0047 21.76C67.0207 21.92 67.0287 22.08 67.0287 22.24V24.88H65.2407V15.448H66.6927L66.9447 16.3H67.0287C67.1487 16.124 67.2927 15.964 67.4607 15.82C67.6287 15.668 67.8287 15.548 68.0607 15.46C68.3007 15.372 68.5767 15.328 68.8887 15.328ZM68.3127 16.756C68.0007 16.756 67.7527 16.82 67.5687 16.948C67.3847 17.076 67.2487 17.272 67.1607 17.536C67.0807 17.792 67.0367 18.116 67.0287 18.508V18.7C67.0287 19.124 67.0687 19.484 67.1487 19.78C67.2287 20.068 67.3647 20.288 67.5567 20.44C67.7487 20.592 68.0087 20.668 68.3367 20.668C68.6087 20.668 68.8327 20.592 69.0087 20.44C69.1847 20.288 69.3167 20.064 69.4047 19.768C69.4927 19.472 69.5367 19.112 69.5367 18.688C69.5367 18.048 69.4367 17.568 69.2367 17.248C69.0447 16.92 68.7367 16.756 68.3127 16.756ZM76.4944 15.328C76.5824 15.328 76.6864 15.332 76.8064 15.34C76.9264 15.348 77.0224 15.36 77.0944 15.376L76.9624 17.056C76.9064 17.04 76.8224 17.028 76.7104 17.02C76.6064 17.004 76.5144 16.996 76.4344 16.996C76.2024 16.996 75.9784 17.028 75.7624 17.092C75.5464 17.148 75.3504 17.24 75.1744 17.368C75.0064 17.496 74.8704 17.668 74.7664 17.884C74.6704 18.092 74.6224 18.352 74.6224 18.664V22H72.8344V15.448H74.1904L74.4544 16.552H74.5384C74.6664 16.328 74.8264 16.124 75.0184 15.94C75.2104 15.756 75.4304 15.608 75.6784 15.496C75.9344 15.384 76.2064 15.328 76.4944 15.328ZM84.0013 18.712C84.0013 19.256 83.9253 19.74 83.7733 20.164C83.6293 20.588 83.4173 20.948 83.1373 21.244C82.8653 21.532 82.5333 21.752 82.1413 21.904C81.7493 22.048 81.3053 22.12 80.8093 22.12C80.3533 22.12 79.9293 22.048 79.5373 21.904C79.1533 21.752 78.8213 21.532 78.5413 21.244C78.2613 20.948 78.0413 20.588 77.8813 20.164C77.7293 19.74 77.6533 19.256 77.6533 18.712C77.6533 17.984 77.7813 17.372 78.0373 16.876C78.2933 16.372 78.6613 15.988 79.1413 15.724C79.6213 15.46 80.1893 15.328 80.8453 15.328C81.4613 15.328 82.0053 15.46 82.4773 15.724C82.9493 15.988 83.3213 16.372 83.5933 16.876C83.8653 17.372 84.0013 17.984 84.0013 18.712ZM79.4773 18.712C79.4773 19.144 79.5213 19.508 79.6093 19.804C79.7053 20.092 79.8533 20.312 80.0533 20.464C80.2533 20.608 80.5133 20.68 80.8333 20.68C81.1533 20.68 81.4093 20.608 81.6013 20.464C81.8013 20.312 81.9453 20.092 82.0333 19.804C82.1293 19.508 82.1773 19.144 82.1773 18.712C82.1773 18.28 82.1293 17.92 82.0333 17.632C81.9453 17.344 81.8013 17.128 81.6013 16.984C81.4013 16.84 81.1413 16.768 80.8213 16.768C80.3493 16.768 80.0053 16.932 79.7893 17.26C79.5813 17.58 79.4773 18.064 79.4773 18.712ZM87.555 22.12C86.827 22.12 86.231 21.836 85.767 21.268C85.311 20.692 85.083 19.848 85.083 18.736C85.083 17.616 85.315 16.768 85.779 16.192C86.243 15.616 86.851 15.328 87.603 15.328C87.915 15.328 88.191 15.372 88.431 15.46C88.671 15.54 88.875 15.652 89.043 15.796C89.219 15.94 89.367 16.104 89.487 16.288H89.547C89.523 16.16 89.495 15.976 89.463 15.736C89.431 15.488 89.415 15.236 89.415 14.98V12.88H91.203V22H89.835L89.487 21.148H89.415C89.303 21.324 89.159 21.488 88.983 21.64C88.815 21.784 88.615 21.9 88.383 21.988C88.151 22.076 87.875 22.12 87.555 22.12ZM88.179 20.692C88.675 20.692 89.023 20.548 89.223 20.26C89.423 19.964 89.527 19.524 89.535 18.94V18.748C89.535 18.108 89.435 17.62 89.235 17.284C89.043 16.948 88.683 16.78 88.155 16.78C87.763 16.78 87.455 16.952 87.231 17.296C87.007 17.632 86.895 18.12 86.895 18.76C86.895 19.4 87.007 19.884 87.231 20.212C87.455 20.532 87.771 20.692 88.179 20.692ZM99.0847 15.448V22H97.7167L97.4767 21.16H97.3807C97.2447 21.384 97.0687 21.568 96.8527 21.712C96.6447 21.848 96.4127 21.948 96.1567 22.012C95.9007 22.084 95.6367 22.12 95.3647 22.12C94.9007 22.12 94.4927 22.036 94.1407 21.868C93.7887 21.7 93.5167 21.44 93.3247 21.088C93.1327 20.736 93.0367 20.28 93.0367 19.72V15.448H94.8247V19.276C94.8247 19.74 94.9087 20.092 95.0767 20.332C95.2447 20.572 95.5127 20.692 95.8807 20.692C96.2487 20.692 96.5327 20.608 96.7327 20.44C96.9407 20.272 97.0847 20.028 97.1647 19.708C97.2527 19.388 97.2967 18.996 97.2967 18.532V15.448H99.0847ZM103.623 22.12C102.975 22.12 102.423 22.004 101.967 21.772C101.511 21.532 101.163 21.164 100.923 20.668C100.683 20.172 100.563 19.536 100.563 18.76C100.563 17.96 100.699 17.308 100.971 16.804C101.243 16.3 101.619 15.928 102.099 15.688C102.587 15.448 103.147 15.328 103.779 15.328C104.227 15.328 104.615 15.372 104.943 15.46C105.279 15.548 105.571 15.652 105.819 15.772L105.291 17.152C105.011 17.04 104.747 16.948 104.499 16.876C104.259 16.804 104.019 16.768 103.779 16.768C103.467 16.768 103.207 16.844 102.999 16.996C102.791 17.14 102.635 17.36 102.531 17.656C102.435 17.944 102.387 18.308 102.387 18.748C102.387 19.18 102.439 19.54 102.543 19.828C102.655 20.108 102.815 20.32 103.023 20.464C103.231 20.6 103.483 20.668 103.779 20.668C104.155 20.668 104.487 20.62 104.775 20.524C105.063 20.42 105.343 20.28 105.615 20.104V21.628C105.343 21.804 105.055 21.928 104.751 22C104.455 22.08 104.079 22.12 103.623 22.12ZM109.884 20.692C110.084 20.692 110.276 20.672 110.46 20.632C110.644 20.592 110.828 20.544 111.012 20.488V21.82C110.82 21.9 110.58 21.968 110.292 22.024C110.012 22.088 109.704 22.12 109.368 22.12C108.976 22.12 108.624 22.056 108.312 21.928C108.008 21.8 107.764 21.58 107.58 21.268C107.404 20.948 107.316 20.508 107.316 19.948V16.792H106.464V16.036L107.448 15.436L107.964 14.056H109.104V15.448H110.94V16.792H109.104V19.948C109.104 20.196 109.176 20.384 109.32 20.512C109.464 20.632 109.652 20.692 109.884 20.692ZM121.454 18.712C121.454 19.256 121.378 19.74 121.226 20.164C121.082 20.588 120.87 20.948 120.59 21.244C120.318 21.532 119.986 21.752 119.594 21.904C119.202 22.048 118.758 22.12 118.262 22.12C117.806 22.12 117.382 22.048 116.99 21.904C116.606 21.752 116.274 21.532 115.994 21.244C115.714 20.948 115.494 20.588 115.334 20.164C115.182 19.74 115.106 19.256 115.106 18.712C115.106 17.984 115.234 17.372 115.49 16.876C115.746 16.372 116.114 15.988 116.594 15.724C117.074 15.46 117.642 15.328 118.298 15.328C118.914 15.328 119.458 15.46 119.93 15.724C120.402 15.988 120.774 16.372 121.046 16.876C121.318 17.372 121.454 17.984 121.454 18.712ZM116.93 18.712C116.93 19.144 116.974 19.508 117.062 19.804C117.158 20.092 117.306 20.312 117.506 20.464C117.706 20.608 117.966 20.68 118.286 20.68C118.606 20.68 118.862 20.608 119.054 20.464C119.254 20.312 119.398 20.092 119.486 19.804C119.582 19.508 119.63 19.144 119.63 18.712C119.63 18.28 119.582 17.92 119.486 17.632C119.398 17.344 119.254 17.128 119.054 16.984C118.854 16.84 118.594 16.768 118.274 16.768C117.802 16.768 117.458 16.932 117.242 17.26C117.034 17.58 116.93 18.064 116.93 18.712ZM126.652 15.328C127.356 15.328 127.92 15.52 128.344 15.904C128.768 16.28 128.98 16.888 128.98 17.728V22H127.192V18.172C127.192 17.7 127.108 17.348 126.94 17.116C126.772 16.876 126.504 16.756 126.136 16.756C125.592 16.756 125.22 16.944 125.02 17.32C124.82 17.688 124.72 18.22 124.72 18.916V22H122.932V15.448H124.3L124.54 16.288H124.636C124.78 16.064 124.956 15.884 125.164 15.748C125.372 15.604 125.604 15.5 125.86 15.436C126.116 15.364 126.38 15.328 126.652 15.328ZM136.875 13.432C137.979 13.432 138.783 13.672 139.287 14.152C139.799 14.624 140.055 15.276 140.055 16.108C140.055 16.484 139.999 16.844 139.887 17.188C139.775 17.524 139.587 17.828 139.323 18.1C139.067 18.364 138.727 18.572 138.303 18.724C137.879 18.876 137.355 18.952 136.731 18.952H135.951V22H134.139V13.432H136.875ZM136.779 14.92H135.951V17.464H136.551C136.895 17.464 137.191 17.42 137.439 17.332C137.687 17.244 137.879 17.104 138.015 16.912C138.151 16.72 138.219 16.472 138.219 16.168C138.219 15.744 138.103 15.432 137.871 15.232C137.639 15.024 137.275 14.92 136.779 14.92ZM148.694 22H146.882V18.304H143.486V22H141.674V13.432H143.486V16.792H146.882V13.432H148.694V22Z" fill="#DD592F"/>
</svg>
